<svg xml:space="preserve" style="max-height: 500px" viewBox="32.8 82.175 440 314" y="0px" x="0px" xmlns:xlink="http://www.w3.org/1999/xlink" xmlns="http://www.w3.org/2000/svg" version="1.1" width="440" height="314">
<g id="BACKGROUND">
	<rect height="500" width="500" style="fill:#FFFFFF;"/>
</g>
<g id="OBJECTS">
	<g>
		<g>
			<path d="M113.667,355.214h276.067c27.045,0,50.496-19.659,54.175-46.453&#10;&#9;&#9;&#9;&#9;c0.086-0.629,0.162-1.262,0.228-1.898c1.202-11.637-1.174-23.147-10.628-32.011c-30.254-28.363,11.975-64.919,5.673-90.131&#10;&#9;&#9;&#9;&#9;c-6.303-25.212-28.363-10.715-69.332-50.423c-40.969-39.708-34.575-61.825-105.783-13.131&#10;&#9;&#9;&#9;&#9;c-57.146,39.078-125.637-4.412-159.673,12.606c-34.035,17.018,0.105,67.335-41.494,121.54&#10;&#9;&#9;&#9;&#9;c-26.244,34.196-6.581,65.132,11.511,83.31c5.959,5.987,13.096,10.527,20.868,13.417&#10;&#9;&#9;&#9;&#9;C101.152,354.224,107.401,355.214,113.667,355.214z" style="fill:#CCF2FF;"/>
			<path d="M439.181,184.721c-6.303-25.212-28.363-10.715-69.332-50.423&#10;&#9;&#9;&#9;&#9;c-27.891-27.033-33.838-45.903-57.256-39.837c18.704,6.537,24.016,12.465,29.208,24.605&#10;&#9;&#9;&#9;&#9;c29.833,69.752-31.935,139.924,10.085,171.438c23.14,17.355-24.953,42.737-68.771,64.71h106.618&#10;&#9;&#9;&#9;&#9;c27.045,0,50.496-19.659,54.175-46.453c0.086-0.629,0.162-1.262,0.228-1.898c1.202-11.637-1.174-23.147-10.628-32.011&#10;&#9;&#9;&#9;&#9;C403.254,246.49,445.484,209.933,439.181,184.721z" style="opacity:0.48;fill:#ADE4F2;"/>
		</g>
		<g>
			<g>
				<g>
					<polygon points="200.342,126.17 148.501,114.971 167.772,152.517 180.475,142.465 185.52,151.185 &#10;&#9;&#9;&#9;&#9;&#9;&#9;187.145,135.459" style="fill:#379CF7;"/>
					<polygon points="185.698,134.704 187.145,135.459 185.52,151.185 180.475,142.465 148.501,114.971" style="fill:#092B96;"/>
				</g>
				<polygon points="174.794,146.956 185.521,151.187 180.473,142.463" style="fill:#1574BC;"/>
			</g>
			<g>
				<path d="M189.052,152.984c-0.465-0.454-0.915-0.93-1.335-1.414l0.365-0.316&#10;&#9;&#9;&#9;&#9;&#9;c0.411,0.474,0.851,0.94,1.308,1.386L189.052,152.984z" style="fill:#092B96;"/>
				<path d="M325.318,232.094c-1.268-0.077-2.553-0.187-3.82-0.328l0.053-0.479&#10;&#9;&#9;&#9;&#9;&#9;c1.259,0.14,2.537,0.25,3.797,0.326L325.318,232.094z M317.698,231.25c-1.253-0.202-2.522-0.439-3.77-0.702l0.1-0.472&#10;&#9;&#9;&#9;&#9;&#9;c1.241,0.262,2.501,0.497,3.747,0.699L317.698,231.25z M310.197,229.665c-1.238-0.324-2.478-0.681-3.685-1.059l0.143-0.461&#10;&#9;&#9;&#9;&#9;&#9;c1.201,0.376,2.434,0.73,3.665,1.053L310.197,229.665z M302.88,227.376c-1.193-0.435-2.395-0.906-3.571-1.399l0.187-0.445&#10;&#9;&#9;&#9;&#9;&#9;c1.169,0.489,2.364,0.957,3.551,1.39L302.88,227.376z M295.807,224.417c-1.156-0.548-2.309-1.127-3.427-1.721l0.226-0.426&#10;&#9;&#9;&#9;&#9;&#9;c1.112,0.59,2.259,1.166,3.408,1.71L295.807,224.417z M289.035,220.821c-1.099-0.65-2.194-1.332-3.255-2.026l0.264-0.403&#10;&#9;&#9;&#9;&#9;&#9;c1.055,0.691,2.144,1.368,3.236,2.014L289.035,220.821z M282.621,216.622c-1.031-0.745-2.058-1.524-3.054-2.317l0.3-0.378&#10;&#9;&#9;&#9;&#9;&#9;c0.991,0.789,2.012,1.564,3.037,2.304L282.621,216.622z M276.623,211.847c-0.96-0.84-1.91-1.712-2.825-2.593l0.335-0.348&#10;&#9;&#9;&#9;&#9;&#9;c0.909,0.876,1.854,1.743,2.808,2.578L276.623,211.847z M271.102,206.53c-0.873-0.924-1.736-1.884-2.564-2.852l0.366-0.314&#10;&#9;&#9;&#9;&#9;&#9;c0.824,0.962,1.681,1.916,2.549,2.834L271.102,206.53z M266.115,200.704c-0.784-1.015-1.547-2.055-2.268-3.092l0.396-0.275&#10;&#9;&#9;&#9;&#9;&#9;c0.717,1.03,1.475,2.064,2.255,3.072L266.115,200.704z M261.737,194.408c-0.162-0.26-0.322-0.521-0.481-0.782&#10;&#9;&#9;&#9;&#9;&#9;c-0.515-0.853-1.007-1.703-1.461-2.526l0.422-0.233c0.451,0.817,0.939,1.661,1.452,2.509c0.157,0.26,0.317,0.519,0.478,0.778&#10;&#9;&#9;&#9;&#9;&#9;L261.737,194.408z M258.043,187.685c-0.559-1.18-1.069-2.367-1.518-3.527l0.45-0.174c0.444,1.15,0.949,2.326,1.503,3.495&#10;&#9;&#9;&#9;&#9;&#9;L258.043,187.685z M255.29,180.518c-0.365-1.25-0.667-2.507-0.9-3.738l0.475-0.089c0.229,1.216,0.528,2.458,0.888,3.693&#10;&#9;&#9;&#9;&#9;&#9;L255.29,180.518z M258.056,173.523l-0.019-0.482c1.367-0.052,2.622-0.224,3.73-0.51l0.121,0.467&#10;&#9;&#9;&#9;&#9;&#9;C260.746,173.292,259.456,173.469,258.056,173.523z M254.206,173.407c-1.314-0.12-2.594-0.321-3.807-0.598l0.107-0.47&#10;&#9;&#9;&#9;&#9;&#9;c1.078,0.246,2.211,0.431,3.374,0.551c-0.036-0.544-0.055-1.085-0.055-1.609c0-0.748,0.038-1.481,0.112-2.178l0.481,0.052&#10;&#9;&#9;&#9;&#9;&#9;c-0.074,0.68-0.11,1.395-0.11,2.127c0,0.537,0.02,1.092,0.058,1.649l-0.118,0.008L254.206,173.407z M246.716,171.66&#10;&#9;&#9;&#9;&#9;&#9;c-1.228-0.498-2.382-1.098-3.428-1.783l0.264-0.403c1.021,0.667,2.146,1.253,3.345,1.74L246.716,171.66z M265.446,171.436&#10;&#9;&#9;&#9;&#9;&#9;l-0.27-0.399c0.094-0.064,0.188-0.13,0.281-0.197c0.885-0.647,1.643-1.519,2.191-2.52l0.424,0.232&#10;&#9;&#9;&#9;&#9;&#9;c-0.583,1.063-1.388,1.99-2.331,2.678C265.644,171.301,265.546,171.369,265.446,171.436z M240.298,167.426&#10;&#9;&#9;&#9;&#9;&#9;c-0.866-0.877-1.69-1.881-2.449-2.985l0.398-0.273c0.743,1.081,1.549,2.063,2.395,2.919L240.298,167.426z M255.264,165.501&#10;&#9;&#9;&#9;&#9;&#9;l-0.45-0.172c0.489-1.275,1.164-2.396,2.008-3.33l0.358,0.323C256.376,163.211,255.732,164.282,255.264,165.501z&#10;&#9;&#9;&#9;&#9;&#9; M268.535,164.78c-0.034-0.813-0.24-1.571-0.614-2.252c-0.209-0.38-0.466-0.728-0.767-1.033l0.345-0.338&#10;&#9;&#9;&#9;&#9;&#9;c0.331,0.337,0.614,0.72,0.844,1.14c0.411,0.747,0.638,1.576,0.674,2.464L268.535,164.78z M213.898,161.524l-0.002-0.482&#10;&#9;&#9;&#9;&#9;&#9;c1.214-0.006,2.495-0.051,3.807-0.132l0.03,0.481C216.412,161.473,215.122,161.518,213.898,161.524z M210.06,161.409&#10;&#9;&#9;&#9;&#9;&#9;c-1.307-0.088-2.592-0.227-3.82-0.416l0.073-0.477c1.215,0.186,2.486,0.325,3.779,0.412L210.06,161.409z M235.893,161.122&#10;&#9;&#9;&#9;&#9;&#9;c-0.549-1.082-1.062-2.231-1.567-3.511l0.448-0.177c0.5,1.266,1.007,2.401,1.549,3.469L235.893,161.122z M221.552,161.06&#10;&#9;&#9;&#9;&#9;&#9;l-0.052-0.48c0.962-0.104,1.95-0.225,3.02-0.37l0.766-0.107l0.068,0.478l-0.769,0.107&#10;&#9;&#9;&#9;&#9;&#9;C223.511,160.834,222.519,160.956,221.552,161.06z M260.246,160.32l-0.156-0.456c1.246-0.429,2.622-0.571,3.881-0.394&#10;&#9;&#9;&#9;&#9;&#9;l-0.068,0.478C262.719,159.781,261.421,159.916,260.246,160.32z M202.471,160.224c-1.255-0.324-2.489-0.716-3.668-1.164&#10;&#9;&#9;&#9;&#9;&#9;l0.171-0.451c1.163,0.443,2.38,0.829,3.617,1.148L202.471,160.224z M229.136,159.937l-0.096-0.473&#10;&#9;&#9;&#9;&#9;&#9;c1.342-0.273,2.548-0.574,3.686-0.922l0.14,0.462C231.714,159.356,230.494,159.661,229.136,159.937z M236.472,157.64&#10;&#9;&#9;&#9;&#9;&#9;l-0.203-0.437c1.183-0.549,2.284-1.183,3.27-1.883l0.279,0.393C238.807,156.431,237.682,157.079,236.472,157.64z&#10;&#9;&#9;&#9;&#9;&#9; M195.292,157.478c-1.155-0.61-2.259-1.289-3.281-2.02l0.281-0.392c1.004,0.718,2.089,1.386,3.225,1.985L195.292,157.478z&#10;&#9;&#9;&#9;&#9;&#9; M233.039,153.993c-0.43-1.363-0.739-2.584-0.946-3.734l0.475-0.086c0.203,1.13,0.507,2.332,0.931,3.675L233.039,153.993z&#10;&#9;&#9;&#9;&#9;&#9; M242.686,153.112l-0.367-0.314c0.822-0.96,1.519-2.014,2.069-3.132l0.432,0.213&#10;&#9;&#9;&#9;&#9;&#9;C244.253,151.033,243.535,152.121,242.686,153.112z M232.273,146.42l-0.482-0.017c0.021-0.581,0.076-1.157,0.164-1.712&#10;&#9;&#9;&#9;&#9;&#9;c0.111-0.709,0.295-1.417,0.545-2.105l0.453,0.165c-0.239,0.659-0.415,1.337-0.522,2.016&#10;&#9;&#9;&#9;&#9;&#9;C232.346,145.302,232.293,145.859,232.273,146.42z M246.047,146.198l-0.475-0.084c0.117-0.663,0.177-1.326,0.177-1.97&#10;&#9;&#9;&#9;&#9;&#9;c0-0.594-0.051-1.182-0.151-1.749l0.475-0.084c0.106,0.594,0.159,1.211,0.159,1.833&#10;&#9;&#9;&#9;&#9;&#9;C246.232,144.817,246.169,145.508,246.047,146.198z M234.809,139.528l-0.367-0.313c0.903-1.058,1.952-1.846,3.118-2.34&#10;&#9;&#9;&#9;&#9;&#9;l0.188,0.444C236.652,137.784,235.663,138.528,234.809,139.528z M244.234,138.962c-0.523-0.762-1.137-1.328-1.823-1.682&#10;&#9;&#9;&#9;&#9;&#9;c-0.328-0.169-0.687-0.296-1.067-0.378l0.102-0.472c0.421,0.091,0.82,0.232,1.186,0.421c0.758,0.39,1.431,1.008,2,1.837&#10;&#9;&#9;&#9;&#9;&#9;L244.234,138.962z" style="fill:#092B96;"/>
				<path d="M329.884,232.233c-0.205,0-0.411-0.001-0.615-0.002l0.004-0.482&#10;&#9;&#9;&#9;&#9;&#9;c0.642,0.005,1.284,0.003,1.926-0.009l0.009,0.482C330.766,232.229,330.325,232.233,329.884,232.233z" style="fill:#092B96;"/>
			</g>
		</g>
		<g>
			<g>
				<g>
					<path d="M334.312,144.215c-0.693-0.374-1.39-0.714-2.099-1.019c11.583,7.596,15.619,22.918,8.926,35.328&#10;&#9;&#9;&#9;&#9;&#9;&#9;c-6.696,12.416-21.716,17.46-34.426,11.954c0.644,0.426,1.311,0.821,2.004,1.195c13.104,7.067,29.456,2.174,36.526-10.936&#10;&#9;&#9;&#9;&#9;&#9;&#9;C352.31,167.634,347.416,151.282,334.312,144.215z" style="fill:#1D88D8;"/>
					<path d="M330.205,142.001c-13.105-7.068-29.458-2.174-36.526,10.931&#10;&#9;&#9;&#9;&#9;&#9;&#9;c-7.068,13.105-2.174,29.458,10.931,36.526c13.105,7.068,29.458,2.174,36.526-10.931&#10;&#9;&#9;&#9;&#9;&#9;&#9;C348.204,165.422,343.31,149.068,330.205,142.001z M308.216,182.771c-9.412-5.076-12.927-16.821-7.851-26.233&#10;&#9;&#9;&#9;&#9;&#9;&#9;c5.076-9.412,16.821-12.927,26.233-7.851c9.412,5.076,12.927,16.821,7.851,26.233&#10;&#9;&#9;&#9;&#9;&#9;&#9;C329.373,184.332,317.628,187.847,308.216,182.771z" style="fill:#379CF7;"/>
					<path d="M297.789,155.145c6.693-12.411,21.722-17.457,34.423-11.949&#10;&#9;&#9;&#9;&#9;&#9;&#9;c-0.644-0.426-1.317-0.824-2.01-1.198c-13.104-7.067-29.456-2.173-36.523,10.93c-7.07,13.109-2.177,29.461,10.927,36.529&#10;&#9;&#9;&#9;&#9;&#9;&#9;c0.693,0.374,1.396,0.717,2.105,1.022C295.132,182.891,291.093,167.561,297.789,155.145z" style="fill:#379CF7;"/>
					<path d="M326.309,148.534c-9.497-4.916-21.181-1.203-26.096,8.294&#10;&#9;&#9;&#9;&#9;&#9;&#9;c-4.916,9.497-1.203,21.18,8.294,26.097c9.497,4.916,21.18,1.203,26.096-8.294C339.518,165.134,335.805,153.45,326.309,148.534&#10;&#9;&#9;&#9;&#9;&#9;&#9;z" style="opacity:0.05;fill:#FFFFFF;"/>
					
						<linearGradient gradientTransform="matrix(0.8802 0.4747 -0.4747 0.8802 101.8344 -129.4896)" y2="131.4145" x2="345.3618" y1="174.133" x1="299.3254" gradientUnits="userSpaceOnUse" id="SVGID_1_">
						<stop style="stop-color:#FFFFFF" offset="0"/>
						<stop style="stop-color:#FFFFFF;stop-opacity:0" offset="1"/>
					</linearGradient>
					<path d="M334.419,156.487l-36.3,10.859c-0.303-3.48,0.34-7.081,2.045-10.415l26.81-8.023&#10;&#9;&#9;&#9;&#9;&#9;&#9;C330.228,150.747,332.749,153.406,334.419,156.487z" style="fill:url(#SVGID_1_);"/>
					
						<linearGradient gradientTransform="matrix(0.8802 0.4747 -0.4747 0.8802 101.8344 -129.4896)" y2="143.1057" x2="356.2104" y1="185.8242" x1="310.174" gradientUnits="userSpaceOnUse" id="SVGID_00000134248425184741831430000014888167763176453539_">
						<stop style="stop-color:#FFFFFF" offset="0"/>
						<stop style="stop-color:#FFFFFF;stop-opacity:0" offset="1"/>
					</linearGradient>
					<path d="M334.603,174.631&#10;&#9;&#9;&#9;&#9;&#9;&#9;c-0.09,0.179-0.188,0.36-0.293,0.531l-25.859,7.734c-4.478-2.337-7.661-6.177-9.25-10.578l37.039-11.085&#10;&#9;&#9;&#9;&#9;&#9;&#9;C337.283,165.594,336.828,170.334,334.603,174.631z" style="fill:url(#SVGID_00000134248425184741831430000014888167763176453539_);"/>
				</g>
				
					<rect height="58.944" width="9.727" style="fill:#379CF7;" transform="matrix(0.8802 0.4747 -0.4747 0.8802 136.2 -113.8868)" y="183.314" x="288.777"/>
			</g>
			<g>
				<g>
					<g>
						<path d="M420.453,174.966v-5.085c0-1.107-0.898-2.005-2.005-2.005h-2.588&#10;&#9;&#9;&#9;&#9;&#9;&#9;&#9;c-1.219,0-2.277-0.797-2.663-1.953c-0.308-0.923-0.679-1.817-1.109-2.677c-0.547-1.092-0.364-2.405,0.5-3.269l1.83-1.83&#10;&#9;&#9;&#9;&#9;&#9;&#9;&#9;c0.783-0.783,0.783-2.053,0-2.836l-3.596-3.596c-0.783-0.783-2.052-0.783-2.835,0l-1.83,1.83&#10;&#9;&#9;&#9;&#9;&#9;&#9;&#9;c-0.864,0.864-2.177,1.047-3.269,0.5c-0.859-0.43-1.754-0.801-2.677-1.109c-1.157-0.386-1.953-1.444-1.953-2.663v-2.588&#10;&#9;&#9;&#9;&#9;&#9;&#9;&#9;c0-1.107-0.898-2.005-2.005-2.005h-5.085c-1.107,0-2.005,0.898-2.005,2.005v2.588c0,1.219-0.796,2.277-1.953,2.663&#10;&#9;&#9;&#9;&#9;&#9;&#9;&#9;c-0.923,0.308-1.817,0.679-2.677,1.109c-1.093,0.547-2.405,0.364-3.269-0.5l-1.83-1.83c-0.783-0.783-2.052-0.783-2.835,0&#10;&#9;&#9;&#9;&#9;&#9;&#9;&#9;l-3.596,3.596c-0.783,0.783-0.783,2.053,0,2.836l1.83,1.83c0.864,0.864,1.047,2.176,0.5,3.269&#10;&#9;&#9;&#9;&#9;&#9;&#9;&#9;c-0.43,0.86-0.801,1.754-1.109,2.677c-0.386,1.157-1.444,1.953-2.663,1.953h-2.589c-1.107,0-2.005,0.898-2.005,2.005v5.085&#10;&#9;&#9;&#9;&#9;&#9;&#9;&#9;c0,1.107,0.898,2.005,2.005,2.005h2.589c1.219,0,2.277,0.796,2.663,1.953c0.308,0.923,0.679,1.817,1.109,2.677&#10;&#9;&#9;&#9;&#9;&#9;&#9;&#9;c0.546,1.092,0.363,2.405-0.5,3.269l-1.83,1.83c-0.783,0.783-0.783,2.053,0,2.835l3.596,3.596&#10;&#9;&#9;&#9;&#9;&#9;&#9;&#9;c0.783,0.783,2.052,0.783,2.835,0l1.83-1.83c0.864-0.864,2.176-1.047,3.269-0.5c0.86,0.43,1.754,0.801,2.677,1.109&#10;&#9;&#9;&#9;&#9;&#9;&#9;&#9;c1.157,0.385,1.953,1.444,1.953,2.663v2.588c0,1.107,0.898,2.005,2.005,2.005h5.085c1.107,0,2.005-0.898,2.005-2.005v-2.588&#10;&#9;&#9;&#9;&#9;&#9;&#9;&#9;c0-1.219,0.797-2.277,1.953-2.663c0.923-0.308,1.817-0.679,2.677-1.109c1.093-0.547,2.405-0.363,3.269,0.5l1.83,1.83&#10;&#9;&#9;&#9;&#9;&#9;&#9;&#9;c0.783,0.783,2.052,0.783,2.835,0l3.596-3.596c0.783-0.783,0.783-2.053,0-2.835l-1.83-1.83&#10;&#9;&#9;&#9;&#9;&#9;&#9;&#9;c-0.864-0.864-1.047-2.176-0.5-3.269c0.43-0.86,0.801-1.754,1.109-2.677c0.385-1.157,1.444-1.953,2.663-1.953h2.588&#10;&#9;&#9;&#9;&#9;&#9;&#9;&#9;C419.556,176.971,420.453,176.073,420.453,174.966z M393.711,178.563c-3.391,0-6.139-2.749-6.139-6.139&#10;&#9;&#9;&#9;&#9;&#9;&#9;&#9;c0-3.391,2.749-6.139,6.139-6.139s6.139,2.748,6.139,6.139C399.85,175.814,397.101,178.563,393.711,178.563z" style="fill:#1D88D8;"/>
					</g>
					<g>
						<path d="M445.441,206.587v-2.878c0-0.627-0.508-1.135-1.135-1.135h-1.465&#10;&#9;&#9;&#9;&#9;&#9;&#9;&#9;c-0.69,0-1.289-0.451-1.507-1.106c-0.174-0.522-0.384-1.028-0.628-1.515c-0.309-0.618-0.206-1.361,0.283-1.85l1.036-1.036&#10;&#9;&#9;&#9;&#9;&#9;&#9;&#9;c0.443-0.443,0.443-1.161,0-1.605l-2.035-2.035c-0.443-0.443-1.161-0.443-1.605,0l-1.036,1.036&#10;&#9;&#9;&#9;&#9;&#9;&#9;&#9;c-0.489,0.489-1.232,0.592-1.85,0.283c-0.486-0.243-0.992-0.454-1.515-0.628c-0.655-0.218-1.105-0.817-1.105-1.507v-1.465&#10;&#9;&#9;&#9;&#9;&#9;&#9;&#9;c0-0.627-0.508-1.135-1.135-1.135h-2.878c-0.627,0-1.135,0.508-1.135,1.135v1.465c0,0.69-0.451,1.289-1.105,1.507&#10;&#9;&#9;&#9;&#9;&#9;&#9;&#9;c-0.522,0.174-1.028,0.384-1.515,0.628c-0.618,0.309-1.361,0.206-1.85-0.283l-1.036-1.036c-0.443-0.443-1.162-0.443-1.605,0&#10;&#9;&#9;&#9;&#9;&#9;&#9;&#9;l-2.035,2.035c-0.443,0.443-0.443,1.161,0,1.605l1.036,1.036c0.489,0.489,0.592,1.232,0.283,1.85&#10;&#9;&#9;&#9;&#9;&#9;&#9;&#9;c-0.243,0.486-0.454,0.992-0.628,1.515c-0.218,0.655-0.817,1.105-1.507,1.105h-1.465c-0.627,0-1.135,0.508-1.135,1.135v2.878&#10;&#9;&#9;&#9;&#9;&#9;&#9;&#9;c0,0.627,0.508,1.134,1.135,1.134h1.465c0.69,0,1.289,0.451,1.507,1.105c0.174,0.522,0.384,1.028,0.628,1.515&#10;&#9;&#9;&#9;&#9;&#9;&#9;&#9;c0.309,0.618,0.206,1.361-0.283,1.85l-1.036,1.036c-0.443,0.443-0.443,1.161,0,1.605l2.035,2.035&#10;&#9;&#9;&#9;&#9;&#9;&#9;&#9;c0.443,0.443,1.162,0.443,1.605,0l1.036-1.036c0.489-0.489,1.232-0.592,1.85-0.283c0.487,0.243,0.992,0.453,1.515,0.628&#10;&#9;&#9;&#9;&#9;&#9;&#9;&#9;c0.655,0.218,1.105,0.817,1.105,1.507v1.465c0,0.627,0.508,1.135,1.135,1.135h2.878c0.627,0,1.135-0.508,1.135-1.135v-1.465&#10;&#9;&#9;&#9;&#9;&#9;&#9;&#9;c0-0.69,0.451-1.289,1.105-1.507c0.522-0.174,1.028-0.384,1.515-0.628c0.618-0.309,1.361-0.206,1.85,0.283l1.036,1.036&#10;&#9;&#9;&#9;&#9;&#9;&#9;&#9;c0.443,0.443,1.161,0.443,1.605,0l2.035-2.035c0.443-0.443,0.443-1.162,0-1.605l-1.036-1.036&#10;&#9;&#9;&#9;&#9;&#9;&#9;&#9;c-0.489-0.489-0.592-1.232-0.283-1.85c0.243-0.486,0.453-0.992,0.628-1.515c0.218-0.655,0.817-1.105,1.507-1.105h1.465&#10;&#9;&#9;&#9;&#9;&#9;&#9;&#9;C444.933,207.721,445.441,207.214,445.441,206.587z M430.307,211.189c-3.336,0-6.04-2.704-6.04-6.04&#10;&#9;&#9;&#9;&#9;&#9;&#9;&#9;c0-3.336,2.704-6.04,6.04-6.04c3.336,0,6.04,2.704,6.04,6.04C436.347,208.484,433.643,211.189,430.307,211.189z" style="fill:#379CF7;"/>
					</g>
				</g>
				<g>
					<path d="M455.634,173.879v-2.878c0-0.627-0.508-1.135-1.135-1.135h-1.465&#10;&#9;&#9;&#9;&#9;&#9;&#9;c-0.69,0-1.289-0.451-1.507-1.105c-0.174-0.522-0.384-1.028-0.628-1.515c-0.309-0.618-0.206-1.361,0.283-1.85l1.036-1.036&#10;&#9;&#9;&#9;&#9;&#9;&#9;c0.443-0.443,0.443-1.161,0-1.605l-2.035-2.035c-0.443-0.443-1.161-0.443-1.605,0l-1.036,1.036&#10;&#9;&#9;&#9;&#9;&#9;&#9;c-0.489,0.489-1.232,0.592-1.85,0.283c-0.487-0.243-0.992-0.453-1.515-0.628c-0.655-0.218-1.105-0.817-1.105-1.507v-1.465&#10;&#9;&#9;&#9;&#9;&#9;&#9;c0-0.627-0.508-1.135-1.135-1.135h-2.878c-0.627,0-1.135,0.508-1.135,1.135v1.465c0,0.69-0.451,1.289-1.105,1.507&#10;&#9;&#9;&#9;&#9;&#9;&#9;c-0.523,0.174-1.028,0.384-1.515,0.628c-0.618,0.309-1.361,0.206-1.85-0.283l-1.036-1.036c-0.443-0.443-1.161-0.443-1.604,0&#10;&#9;&#9;&#9;&#9;&#9;&#9;l-2.035,2.035c-0.443,0.443-0.443,1.161,0,1.605l1.036,1.036c0.489,0.489,0.592,1.232,0.283,1.85&#10;&#9;&#9;&#9;&#9;&#9;&#9;c-0.243,0.486-0.454,0.992-0.628,1.515c-0.218,0.655-0.817,1.105-1.507,1.105h-1.465c-0.627,0-1.134,0.508-1.134,1.135v2.878&#10;&#9;&#9;&#9;&#9;&#9;&#9;c0,0.627,0.508,1.135,1.134,1.135h1.465c0.69,0,1.289,0.451,1.507,1.105c0.174,0.522,0.384,1.028,0.628,1.515&#10;&#9;&#9;&#9;&#9;&#9;&#9;c0.309,0.618,0.206,1.361-0.283,1.85l-1.036,1.036c-0.443,0.443-0.443,1.162,0,1.605l2.035,2.035&#10;&#9;&#9;&#9;&#9;&#9;&#9;c0.443,0.443,1.161,0.443,1.604,0l1.036-1.036c0.489-0.489,1.232-0.592,1.85-0.283c0.487,0.243,0.992,0.454,1.515,0.628&#10;&#9;&#9;&#9;&#9;&#9;&#9;c0.655,0.218,1.105,0.817,1.105,1.507v1.465c0,0.627,0.508,1.135,1.135,1.135h2.878c0.627,0,1.135-0.508,1.135-1.135v-1.465&#10;&#9;&#9;&#9;&#9;&#9;&#9;c0-0.69,0.451-1.289,1.105-1.507c0.522-0.174,1.028-0.384,1.515-0.628c0.618-0.309,1.361-0.206,1.85,0.283l1.036,1.036&#10;&#9;&#9;&#9;&#9;&#9;&#9;c0.443,0.443,1.161,0.443,1.605,0l2.035-2.035c0.443-0.443,0.443-1.162,0-1.605l-1.036-1.036&#10;&#9;&#9;&#9;&#9;&#9;&#9;c-0.489-0.489-0.592-1.232-0.283-1.85c0.243-0.487,0.453-0.992,0.628-1.515c0.218-0.655,0.817-1.105,1.507-1.105h1.465&#10;&#9;&#9;&#9;&#9;&#9;&#9;C455.126,175.014,455.634,174.506,455.634,173.879z M440.5,175.481c-1.68,0-3.041-1.362-3.041-3.041&#10;&#9;&#9;&#9;&#9;&#9;&#9;c0-1.68,1.362-3.041,3.041-3.041c1.68,0,3.041,1.362,3.041,3.041C443.541,174.12,442.18,175.481,440.5,175.481z" style="fill:#2B56E0;"/>
				</g>
			</g>
		</g>
		<g>
			<path d="M125.507,265.385c0,0-28.957-37.78-90.214-33.89C35.293,231.496,67.757,270.324,125.507,265.385z" style="fill:#1D88D8;"/>
			<path d="M107.822,239.683c0,0,6.267-47.187-39.774-87.779C68.048,151.904,63.517,202.313,107.822,239.683z" style="fill:#7DC4F9;"/>
			<path d="M103.336,245.783c0,0,40.796-22.066,46.453-81.605&#10;&#9;&#9;&#9;&#9;C149.789,164.178,107.446,189.456,103.336,245.783z" style="fill:#7DC4F9;"/>
			<g>
				<g>
					<path d="M112.603,242.436c0,0-33.98-20.854-21.586-31.425c9.283-7.918-9.017-18.082-2.054-22.009&#10;&#9;&#9;&#9;&#9;&#9;&#9;c6.963-3.926,8.41-0.324,5.956-10.448c-2.454-10.125,5.725-12.872,8.673-23.177c2.948-10.305,17.506-6.516,16.442,8.453&#10;&#9;&#9;&#9;&#9;&#9;&#9;c-1.064,14.969,3.32-0.893,8.142,5.409c4.822,6.302-11.181,30.563-5.096,28.495c6.085-2.068,10.767,2.561,8.664,9.867&#10;&#9;&#9;&#9;&#9;&#9;&#9;C126.828,224.676,112.603,242.436,112.603,242.436z" style="fill:#1D88D8;"/>
					<path d="M113.779,249.932c-0.06-0.03-0.096-0.079-0.11-0.152&#10;&#9;&#9;&#9;&#9;&#9;&#9;c-2.282-11.554-5.044-26.796-6.157-42.245l-0.009-0.121l-0.092-0.079c-3.51-3.003-6.576-6.557-9.542-9.994&#10;&#9;&#9;&#9;&#9;&#9;&#9;c-0.978-1.134-1.956-2.266-2.951-3.384c-0.057-0.064-0.062-0.113-0.016-0.172c0.064-0.084,0.202-0.138,0.306-0.087&#10;&#9;&#9;&#9;&#9;&#9;&#9;c0.026,0.013,0.05,0.032,0.073,0.057c0.973,1.093,1.931,2.201,2.888,3.311c2.738,3.172,5.57,6.451,8.76,9.296l0.531,0.473&#10;&#9;&#9;&#9;&#9;&#9;&#9;l-0.047-0.71c-0.427-6.515-0.573-13.169-0.445-20.346l0.003-0.19c0,0-0.173-0.08-0.174-0.08&#10;&#9;&#9;&#9;&#9;&#9;&#9;c-0.037-0.019-0.056-0.035-0.073-0.06c-2.73-4.112-5.074-8.5-6.965-13.043c-0.034-0.08-0.023-0.139,0.033-0.192&#10;&#9;&#9;&#9;&#9;&#9;&#9;c0.071-0.066,0.19-0.09,0.265-0.053c0.037,0.018,0.065,0.051,0.086,0.102c1.736,4.169,3.863,8.216,6.319,12.029l0.514,0.797&#10;&#9;&#9;&#9;&#9;&#9;&#9;l0.022-0.948c0.159-6.781,0.552-13.789,1.201-21.422c0.008-0.091,0.047-0.113,0.062-0.121c0.056-0.031,0.146-0.028,0.22,0.009&#10;&#9;&#9;&#9;&#9;&#9;&#9;c0.087,0.043,0.127,0.114,0.119,0.211c-0.887,10.433-1.3,19.866-1.263,28.834l0.002,0.566l0.459-0.331&#10;&#9;&#9;&#9;&#9;&#9;&#9;c5.163-3.723,9.486-8.345,12.85-13.736c0.039-0.063,0.078-0.092,0.158-0.051c0.069,0.034,0.128,0.105,0.149,0.18&#10;&#9;&#9;&#9;&#9;&#9;&#9;c0.018,0.064,0.008,0.125-0.029,0.186c-3.491,5.595-8.007,10.355-13.425,14.15l-0.151,0.092l0.001,0.165&#10;&#9;&#9;&#9;&#9;&#9;&#9;c0.045,5.036,0.222,9.701,0.541,14.259l0.006,0.081l0.047,0.066c0.04,0.057,0.043,0.121,0.008,0.188l-0.037,0.073l0.006,0.081&#10;&#9;&#9;&#9;&#9;&#9;&#9;c0.292,4.026,0.717,8.251,1.3,12.918l0.095,0.764l0.434-0.637c4.089-5.997,8.546-11.806,13.247-17.265&#10;&#9;&#9;&#9;&#9;&#9;&#9;c0.068-0.079,0.15-0.095,0.244-0.048c0.068,0.034,0.122,0.097,0.134,0.156c0.006,0.027,0.007,0.072-0.047,0.134&#10;&#9;&#9;&#9;&#9;&#9;&#9;c-4.956,5.756-9.624,11.87-13.873,18.175l-0.061,0.091l0.014,0.109c1.064,8.169,2.55,16.988,4.676,27.755&#10;&#9;&#9;&#9;&#9;&#9;&#9;c0.019,0.098-0.019,0.127-0.037,0.141C113.979,249.967,113.862,249.974,113.779,249.932L113.779,249.932z" style="opacity:0.39;fill:#092B96;"/>
				</g>
			</g>
			<g>
				<g>
					<path d="M117.194,243.751c0,0-39.071,15.014-39.972-2.065c-0.675-12.792-20.828-4.025-19.657-12.335&#10;&#9;&#9;&#9;&#9;&#9;&#9;c1.171-8.31,5.098-7.217-4.908-11.633c-10.006-4.417-7.076-12.987-13.784-22.022c-6.708-9.035,5.742-18.751,17.54-8.31&#10;&#9;&#9;&#9;&#9;&#9;&#9;c11.798,10.441,1.375-3.337,9.705-3.335c8.33,0.002,18.339,28.826,20.499,22.434c2.16-6.392,9.007-7.34,13.755-0.924&#10;&#9;&#9;&#9;&#9;&#9;&#9;C111.469,220.557,117.194,243.751,117.194,243.751z" style="fill:#379CF7;"/>
					<path d="M124.193,247.555c-0.063,0.031-0.127,0.029-0.196-0.005&#10;&#9;&#9;&#9;&#9;&#9;&#9;c-11.087-5.472-25.555-12.898-39.142-21.831l-0.107-0.07l-0.125,0.026c-4.743,1.009-9.663,1.297-14.421,1.575&#10;&#9;&#9;&#9;&#9;&#9;&#9;c-1.569,0.092-3.138,0.184-4.704,0.3c-0.09,0.007-0.133-0.02-0.154-0.096c-0.029-0.107,0.014-0.257,0.123-0.311&#10;&#9;&#9;&#9;&#9;&#9;&#9;c0.027-0.013,0.059-0.021,0.094-0.024c1.532-0.114,3.067-0.204,4.603-0.294c4.391-0.258,8.932-0.525,13.34-1.368l0.733-0.141&#10;&#9;&#9;&#9;&#9;&#9;&#9;l-0.621-0.414c-5.703-3.803-11.343-7.928-17.243-12.615l-0.156-0.124c0,0-0.177,0.093-0.177,0.094&#10;&#9;&#9;&#9;&#9;&#9;&#9;c-0.039,0.019-0.064,0.024-0.097,0.022c-5.169-0.349-10.323-1.196-15.317-2.519c-0.088-0.023-0.131-0.069-0.139-0.15&#10;&#9;&#9;&#9;&#9;&#9;&#9;c-0.01-0.102,0.046-0.216,0.125-0.254c0.039-0.019,0.084-0.022,0.14-0.007c4.583,1.214,9.314,2.025,14.06,2.411l0.992,0.08&#10;&#9;&#9;&#9;&#9;&#9;&#9;l-0.776-0.623c-5.551-4.461-11.141-9.261-17.09-14.673c-0.071-0.064-0.064-0.111-0.061-0.129&#10;&#9;&#9;&#9;&#9;&#9;&#9;c0.009-0.066,0.07-0.14,0.148-0.178c0.091-0.045,0.176-0.033,0.251,0.036c8.131,7.399,15.729,13.763,23.229,19.457l0.473,0.359&#10;&#9;&#9;&#9;&#9;&#9;&#9;l0.017-0.594c0.191-6.68-0.901-13.233-3.248-19.477c-0.027-0.073-0.027-0.123,0.058-0.165c0.073-0.035,0.168-0.039,0.245-0.009&#10;&#9;&#9;&#9;&#9;&#9;&#9;c0.065,0.026,0.11,0.073,0.136,0.143c2.436,6.481,3.521,13.284,3.226,20.221l-0.02,0.185l0.139,0.104&#10;&#9;&#9;&#9;&#9;&#9;&#9;c4.226,3.177,8.227,6.007,12.231,8.649l0.071,0.047l0.085,0.004c0.074,0.003,0.128,0.041,0.162,0.113l0.037,0.078l0.071,0.047&#10;&#9;&#9;&#9;&#9;&#9;&#9;c3.542,2.326,7.335,4.669,11.597,7.161l0.698,0.408l-0.254-0.768c-2.389-7.236-4.387-14.659-5.937-22.061&#10;&#9;&#9;&#9;&#9;&#9;&#9;c-0.022-0.107,0.016-0.186,0.116-0.234c0.072-0.035,0.158-0.04,0.216-0.012c0.026,0.013,0.064,0.04,0.082,0.124&#10;&#9;&#9;&#9;&#9;&#9;&#9;c1.634,7.805,3.752,15.599,6.295,23.164l0.036,0.109l0.1,0.058c7.489,4.327,15.788,8.717,26.12,13.817&#10;&#9;&#9;&#9;&#9;&#9;&#9;c0.094,0.046,0.094,0.098,0.094,0.122C124.35,247.41,124.281,247.512,124.193,247.555L124.193,247.555z" style="opacity:0.39;fill:#092B96;"/>
				</g>
			</g>
		</g>
		<g>
			<path d="M400.637,209.137H94.707c-2.878,0-5.211,2.333-5.211,5.211l-0.63,149.178&#10;&#9;&#9;&#9;&#9;c0,2.878,2.333,5.211,5.211,5.211l306.56-2.521c2.878,0,5.211-2.333,5.211-5.211V214.348&#10;&#9;&#9;&#9;&#9;C405.848,211.47,403.515,209.137,400.637,209.137z" style="fill:#FFFFFF;"/>
			<g>
				<path d="M365.914,251.277H124.142c-2.403,0-4.352,1.948-4.352,4.352v22.546&#10;&#9;&#9;&#9;&#9;&#9;c0,2.403,1.948,4.352,4.352,4.352h241.772c2.403,0,4.352-1.948,4.352-4.352v-22.546&#10;&#9;&#9;&#9;&#9;&#9;C370.266,253.225,368.318,251.277,365.914,251.277z" style="fill:#D8E8EF;"/>
				<path d="M178.989,251.277h-54.847c-2.403,0-4.352,1.948-4.352,4.352v22.546&#10;&#9;&#9;&#9;&#9;&#9;c0,2.403,1.948,4.352,4.352,4.352h54.847c2.444,0,4.425-1.981,4.425-4.425v-22.399&#10;&#9;&#9;&#9;&#9;&#9;C183.414,253.258,181.433,251.277,178.989,251.277z" style="fill:#379CF7;"/>
			</g>
			<path d="M158.814,298.82h-30.971c-2.813,0-5.093,2.28-5.093,5.093v30.971c0,2.813,2.28,5.093,5.093,5.093&#10;&#9;&#9;&#9;&#9;h30.971c2.813,0,5.092-2.28,5.092-5.093v-30.971C163.906,301.1,161.626,298.82,158.814,298.82z" style="fill:#7DC4F9;"/>
			<path d="M240.505,298.82h-30.971c-2.813,0-5.093,2.28-5.093,5.093v30.971c0,2.813,2.28,5.093,5.093,5.093&#10;&#9;&#9;&#9;&#9;h30.971c2.813,0,5.092-2.28,5.092-5.093v-30.971C245.598,301.1,243.318,298.82,240.505,298.82z" style="fill:#1D88D8;"/>
			<g>
				<path d="M169.243,303.249c-0.354,0-0.643-0.288-0.643-0.642c0-0.354,0.288-0.643,0.643-0.643h27.325&#10;&#9;&#9;&#9;&#9;&#9;c0.354,0,0.643,0.289,0.643,0.643c0,0.354-0.288,0.642-0.643,0.642H169.243z" style="fill:#ABD0DD;"/>
				<path d="M169.243,309.892c-0.354,0-0.643-0.289-0.643-0.643s0.288-0.642,0.643-0.642h27.325&#10;&#9;&#9;&#9;&#9;&#9;c0.354,0,0.643,0.288,0.643,0.642s-0.288,0.643-0.643,0.643H169.243z" style="fill:#ABD0DD;"/>
				<path d="M169.243,316.534c-0.354,0-0.643-0.288-0.643-0.642c0-0.354,0.288-0.642,0.643-0.642h27.325&#10;&#9;&#9;&#9;&#9;&#9;c0.354,0,0.643,0.288,0.643,0.642c0,0.354-0.288,0.642-0.643,0.642H169.243z" style="fill:#ABD0DD;"/>
				<path d="M169.243,323.176c-0.354,0-0.643-0.288-0.643-0.642c0-0.354,0.288-0.643,0.643-0.643h27.325&#10;&#9;&#9;&#9;&#9;&#9;c0.354,0,0.643,0.289,0.643,0.643c0,0.355-0.288,0.642-0.643,0.642H169.243z" style="fill:#ABD0DD;"/>
				<path d="M169.243,329.819c-0.354,0-0.643-0.289-0.643-0.643s0.288-0.642,0.643-0.642h27.325&#10;&#9;&#9;&#9;&#9;&#9;c0.354,0,0.643,0.288,0.643,0.642s-0.288,0.643-0.643,0.643H169.243z" style="fill:#ABD0DD;"/>
				<path d="M169.243,336.461c-0.354,0-0.643-0.288-0.643-0.642s0.288-0.642,0.643-0.642h11.687&#10;&#9;&#9;&#9;&#9;&#9;c0.354,0,0.643,0.288,0.643,0.642s-0.288,0.642-0.643,0.642H169.243z" style="fill:#ABD0DD;"/>
			</g>
			<g>
				<path d="M252.529,303.249c-0.354,0-0.643-0.288-0.643-0.642c0-0.354,0.288-0.643,0.643-0.643h27.325&#10;&#9;&#9;&#9;&#9;&#9;c0.354,0,0.643,0.289,0.643,0.643c0,0.354-0.288,0.642-0.643,0.642H252.529z" style="fill:#ABD0DD;"/>
				<path d="M252.529,309.892c-0.354,0-0.643-0.289-0.643-0.643s0.288-0.642,0.643-0.642h27.325&#10;&#9;&#9;&#9;&#9;&#9;c0.354,0,0.643,0.288,0.643,0.642s-0.288,0.643-0.643,0.643H252.529z" style="fill:#ABD0DD;"/>
				<path d="M252.529,316.534c-0.354,0-0.643-0.288-0.643-0.642c0-0.354,0.288-0.642,0.643-0.642h27.325&#10;&#9;&#9;&#9;&#9;&#9;c0.354,0,0.643,0.288,0.643,0.642c0,0.354-0.288,0.642-0.643,0.642H252.529z" style="fill:#ABD0DD;"/>
				<path d="M252.529,323.176c-0.354,0-0.643-0.288-0.643-0.642c0-0.354,0.288-0.643,0.643-0.643h27.325&#10;&#9;&#9;&#9;&#9;&#9;c0.354,0,0.643,0.289,0.643,0.643c0,0.355-0.288,0.642-0.643,0.642H252.529z" style="fill:#ABD0DD;"/>
				<path d="M252.529,329.819c-0.354,0-0.643-0.289-0.643-0.643s0.288-0.642,0.643-0.642h27.325&#10;&#9;&#9;&#9;&#9;&#9;c0.354,0,0.643,0.288,0.643,0.642s-0.288,0.643-0.643,0.643H252.529z" style="fill:#ABD0DD;"/>
				<path d="M252.529,336.461c-0.354,0-0.643-0.288-0.643-0.642s0.288-0.642,0.643-0.642h11.687&#10;&#9;&#9;&#9;&#9;&#9;c0.354,0,0.643,0.288,0.643,0.642s-0.288,0.642-0.643,0.642H252.529z" style="fill:#ABD0DD;"/>
			</g>
			<path d="M324.5,298.82h-30.971c-2.813,0-5.093,2.28-5.093,5.093v30.971c0,2.813,2.28,5.093,5.093,5.093&#10;&#9;&#9;&#9;&#9;H324.5c2.813,0,5.092-2.28,5.092-5.093v-30.971C329.592,301.1,327.313,298.82,324.5,298.82z" style="fill:#092B96;"/>
			<g>
				<path d="M336.524,303.249c-0.354,0-0.643-0.288-0.643-0.642c0-0.354,0.288-0.643,0.643-0.643h27.325&#10;&#9;&#9;&#9;&#9;&#9;c0.354,0,0.643,0.289,0.643,0.643c0,0.354-0.288,0.642-0.643,0.642H336.524z" style="fill:#ABD0DD;"/>
				<path d="M336.524,309.892c-0.354,0-0.643-0.289-0.643-0.643s0.288-0.642,0.643-0.642h27.325&#10;&#9;&#9;&#9;&#9;&#9;c0.354,0,0.643,0.288,0.643,0.642s-0.288,0.643-0.643,0.643H336.524z" style="fill:#ABD0DD;"/>
				<path d="M336.524,316.534c-0.354,0-0.643-0.288-0.643-0.642c0-0.354,0.288-0.642,0.643-0.642h27.325&#10;&#9;&#9;&#9;&#9;&#9;c0.354,0,0.643,0.288,0.643,0.642c0,0.354-0.288,0.642-0.643,0.642H336.524z" style="fill:#ABD0DD;"/>
				<path d="M336.524,323.176c-0.354,0-0.643-0.288-0.643-0.642c0-0.354,0.288-0.643,0.643-0.643h27.325&#10;&#9;&#9;&#9;&#9;&#9;c0.354,0,0.643,0.289,0.643,0.643c0,0.355-0.288,0.642-0.643,0.642H336.524z" style="fill:#ABD0DD;"/>
				<path d="M336.524,329.819c-0.354,0-0.643-0.289-0.643-0.643s0.288-0.642,0.643-0.642h27.325&#10;&#9;&#9;&#9;&#9;&#9;c0.354,0,0.643,0.288,0.643,0.642s-0.288,0.643-0.643,0.643H336.524z" style="fill:#ABD0DD;"/>
				<path d="M336.524,336.461c-0.354,0-0.643-0.288-0.643-0.642s0.288-0.642,0.643-0.642h11.687&#10;&#9;&#9;&#9;&#9;&#9;c0.354,0,0.643,0.288,0.643,0.642s-0.288,0.642-0.643,0.642H336.524z" style="fill:#ABD0DD;"/>
			</g>
			<g>
				<path d="M398.743,217.359h-8.052c-0.439,0-0.798,0.359-0.798,0.798&#10;&#9;&#9;&#9;&#9;&#9;l0,0c0,0.439,0.359,0.798,0.798,0.798h8.052c0.439,0,0.798-0.359,0.798-0.798l0,0&#10;&#9;&#9;&#9;&#9;&#9;C399.541,217.718,399.182,217.359,398.743,217.359z" style="fill-rule:evenodd;clip-rule:evenodd;fill:#379CF7;"/>
				<path d="M398.743,221.152h-8.052c-0.439,0-0.798,0.359-0.798,0.798&#10;&#9;&#9;&#9;&#9;&#9;l0,0c0,0.439,0.359,0.798,0.798,0.798h8.052c0.439,0,0.798-0.359,0.798-0.798l0,0&#10;&#9;&#9;&#9;&#9;&#9;C399.541,221.511,399.182,221.152,398.743,221.152z" style="fill-rule:evenodd;clip-rule:evenodd;fill:#379CF7;"/>
				<path d="M398.743,224.881h-8.052c-0.439,0-0.798,0.359-0.798,0.798&#10;&#9;&#9;&#9;&#9;&#9;l0,0c0,0.439,0.359,0.798,0.798,0.798h8.052c0.439,0,0.798-0.359,0.798-0.798l0,0&#10;&#9;&#9;&#9;&#9;&#9;C399.541,225.241,399.182,224.881,398.743,224.881z" style="fill-rule:evenodd;clip-rule:evenodd;fill:#379CF7;"/>
			</g>
			<g>
				<path d="M108.54,221.468c0,1.957-1.587,3.544-3.544,3.544c-1.957,0-3.544-1.587-3.544-3.544&#10;&#9;&#9;&#9;&#9;&#9;c0-1.957,1.587-3.544,3.544-3.544C106.953,217.924,108.54,219.511,108.54,221.468z" style="fill:#379CF7;"/>
				<path d="M127.685,221.468c0,1.957-1.587,3.544-3.544,3.544c-1.957,0-3.544-1.587-3.544-3.544&#10;&#9;&#9;&#9;&#9;&#9;c0-1.957,1.587-3.544,3.544-3.544C126.098,217.924,127.685,219.511,127.685,221.468z" style="fill:#092B96;"/>
				<path d="M147.253,221.468c0,1.957-1.587,3.544-3.544,3.544c-1.957,0-3.544-1.587-3.544-3.544&#10;&#9;&#9;&#9;&#9;&#9;c0-1.957,1.587-3.544,3.544-3.544C145.666,217.924,147.253,219.511,147.253,221.468z" style="fill:#1D88D8;"/>
			</g>
			<path d="M235.64,323.489l-9.048-12.876c-0.985-1.402-3.063-1.402-4.048,0l-9.048,12.876&#10;&#9;&#9;&#9;&#9;c-1.152,1.639,0.021,3.896,2.024,3.896h18.097C235.62,327.384,236.792,325.128,235.64,323.489z" style="fill:#092B96;"/>
			<circle r="10.636" cy="320.942" cx="308.79" style="fill:#1D88D8;"/>
		</g>
		<path d="M464.707,372.232c0-5.57-92.981-10.085-207.679-10.085s-207.679,4.515-207.679,10.085&#10;&#9;&#9;&#9;c0,5.569,92.981,10.085,207.679,10.085S464.707,377.801,464.707,372.232z" style="fill:#CCF2FF;"/>
		<g>
			<path d="M230.266,181.988c-0.351-2.4-1.647-7.657-6.143-5.831&#10;&#9;&#9;&#9;&#9;c-8.772-3.395-12.687,0.89-13.31,6.588c-0.783,7.155-4.799,10.015-3.311,12.066c1.862,2.567,7.611,6.316,13.55,6.453&#10;&#9;&#9;&#9;&#9;c6.201,0.125,11.642-4.891,13.276-7.609C235.633,191.484,231.308,189.112,230.266,181.988z" style="fill-rule:evenodd;clip-rule:evenodd;fill:#092B96;"/>
			<g>
				<path d="M260.004,217.636c-3.14-5.718-15.477-18.685-16.856-19.154&#10;&#9;&#9;&#9;&#9;&#9;c-3.857-1.312-9.978-1.902-13.598-2.21c-2.358-0.394-8.988-0.315-8.988-0.315l-2.625,0.042&#10;&#9;&#9;&#9;&#9;&#9;c-3.397-0.001-12.855,0.421-19.539,2.694c-1.378,0.469-14.138,13.225-17.278,18.944c-0.739,1.346-0.797,2.982-0.155,4.381&#10;&#9;&#9;&#9;&#9;&#9;l13.452,26.947l6.701-1.426l-5.307-23.254c-0.382-1.792,0.195-3.659,1.509-4.882l8.536-10.055h12.081h17.228l8.639,10.055&#10;&#9;&#9;&#9;&#9;&#9;c1.314,1.223,1.891,3.09,1.509,4.882l-5.307,23.254l6.819,0.96l13.334-26.481C260.801,220.618,260.743,218.982,260.004,217.636z" style="fill-rule:evenodd;clip-rule:evenodd;fill:#379CF7;"/>
				<path d="M200.484,247.665l2.912,2.514&#10;&#9;&#9;&#9;&#9;&#9;c0.394,0.332,0.195,0.995-0.311,1.034l-1.233,0.095l0.807,2.166c0.841,2.256-3.858,5.712-5.797,1.247l-1.984-5.862&#10;&#9;&#9;&#9;&#9;&#9;L200.484,247.665z" style="fill-rule:evenodd;clip-rule:evenodd;fill:#FFA683;"/>
				<path d="M240.749,247.64l-3.012,2.539&#10;&#9;&#9;&#9;&#9;&#9;c-0.394,0.332-0.195,0.995,0.311,1.034l1.234,0.095l-0.807,2.166c-0.841,2.256,3.858,5.712,5.797,1.247l2.081-6.314&#10;&#9;&#9;&#9;&#9;&#9;L240.749,247.64z" style="fill-rule:evenodd;clip-rule:evenodd;fill:#FFA683;"/>
			</g>
			<g>
				<g>
					<path d="M228.205,185.116l0.111,5.437&#10;&#9;&#9;&#9;&#9;&#9;&#9;c0.041,2.02-0.749,3.964-2.188,5.378c-0.235,0.217-0.471,0.452-0.715,0.688c-2.487,2.44-6.453,2.522-9.038,0.185l-0.733-0.659&#10;&#9;&#9;&#9;&#9;&#9;&#9;c-1.499-1.347-2.373-3.254-2.414-5.268l-0.111-5.452c0,0,7.661-0.075,10.585-3.71&#10;&#9;&#9;&#9;&#9;&#9;&#9;C223.701,181.715,225.182,184.53,228.205,185.116z" style="fill-rule:evenodd;clip-rule:evenodd;fill:#FFA683;"/>
					<path d="M228.205,185.116l0.111,5.437&#10;&#9;&#9;&#9;&#9;&#9;&#9;c0.041,2.02-0.749,3.964-2.188,5.378c-0.235,0.217-0.471,0.452-0.715,0.688c-2.487,2.44-6.453,2.522-9.038,0.185l-0.733-0.659&#10;&#9;&#9;&#9;&#9;&#9;&#9;c-1.499-1.347-2.373-3.254-2.414-5.268l-0.111-5.452c0,0,7.593-0.069,10.518-3.704&#10;&#9;&#9;&#9;&#9;&#9;&#9;C223.634,181.721,225.182,184.53,228.205,185.116z" style="fill-rule:evenodd;clip-rule:evenodd;fill:#FFA683;"/>
					<path d="M215.123,191.902c1.413-2.37-1.101-4.784-3.412-3.276&#10;&#9;&#9;&#9;&#9;&#9;&#9;c-0.18,0.118-0.336,0.28-0.446,0.464c-1.418,2.372,1.102,4.79,3.413,3.276C214.857,192.249,215.012,192.087,215.123,191.902z" style="fill-rule:evenodd;clip-rule:evenodd;fill:#FFA683;"/>
					<path d="M230.147,191.596c1.382-2.315-0.985-4.672-3.248-3.377&#10;&#9;&#9;&#9;&#9;&#9;&#9;c-0.299,0.171-0.546,0.429-0.705,0.735c-1.202,2.314,1.251,4.582,3.507,3.107C229.882,191.943,230.037,191.781,230.147,191.596&#10;&#9;&#9;&#9;&#9;&#9;&#9;z" style="fill-rule:evenodd;clip-rule:evenodd;fill:#FFA683;"/>
				</g>
			</g>
			<path d="M225.103,197.168c0-2.379-1.913-4.307-4.273-4.307&#10;&#9;&#9;&#9;&#9;c-2.36,0-4.274,1.928-4.274,4.307s1.913,4.808,4.274,4.808C223.189,201.975,225.103,199.546,225.103,197.168z" style="fill-rule:evenodd;clip-rule:evenodd;fill:#FFA683;"/>
			<path d="M216.576,196.968c-0.003,0.068-0.02,0.131-0.02,0.2&#10;&#9;&#9;&#9;&#9;c0,0.173,2.215,2.393,4.39,2.387c2.097-0.005,4.157-2.23,4.157-2.387c0-0.085-0.02-0.164-0.025-0.247&#10;&#9;&#9;&#9;&#9;C222.646,198.999,219.045,199.03,216.576,196.968z" style="fill-rule:evenodd;clip-rule:evenodd;fill:#EF7F5E;"/>
			<path d="M201.118,247.538l-5.307-23.254c-0.382-1.792,0.195-3.659,1.509-4.882l8.536-10.055&#10;&#9;&#9;&#9;&#9;c0,0,1.891-3.249,0.945-2.828c-0.945,0.42-13.551,11.293-14.707,13.919c-0.881,2.003,4.102,19.46,6.517,27.634L201.118,247.538z" style="fill:#1D88D8;"/>
			<path d="M243.148,198.483c-0.226-0.077-0.462-0.151-0.702-0.223c2.444,2.872,17.258,20.51,15.619,24.174&#10;&#9;&#9;&#9;&#9;c-1.478,3.305-10.727,20.063-13.57,25.736l2.33,0.328l13.334-26.481c0.642-1.399,0.584-3.035-0.155-4.381&#10;&#9;&#9;&#9;&#9;C256.864,211.918,244.527,198.952,243.148,198.483z" style="fill:#1D88D8;"/>
		</g>
		<g>
			<g>
				<path d="M119.73,329.376l0.765,2.145l11.34-1.156c0,0,12.496,15.928,17.681,21.355&#10;&#9;&#9;&#9;&#9;&#9;c0.541,0.56,1.147,1.24,1.772,2.005c3.301-8.001,9.987-33.208,3.189-35.212C144.433,315.547,119.73,329.376,119.73,329.376z" style="fill:#092B96;"/>
				<path d="M142.456,343.57c2.686,3.236,5.297,6.304,7.059,8.15c0.541,0.56,1.147,1.24,1.772,2.005&#10;&#9;&#9;&#9;&#9;&#9;c2.061-4.98,5.427-16.627,6.033-25.197C155.055,328.854,147.408,337.629,142.456,343.57z" style="fill:#052575;"/>
			</g>
			<g>
				<path d="M131.837,330.364c0,0,12.495,15.927,17.682,21.361c5.187,5.434,17.043,21.489-14.82,20.254&#10;&#9;&#9;&#9;&#9;&#9;c-31.862-1.235-46.334-6.129-46.334-6.129l-0.659-6.916l33.344-3.54c0,0-20.83-2.429-18.278-22.065L131.837,330.364z" style="fill:#173ACC;"/>
				<path d="M132.433,332.825l0.568-0.986c3.219,4.071,12.293,15.458,16.518,19.885&#10;&#9;&#9;&#9;&#9;&#9;c2.04,2.137,5.11,5.917,6.148,9.642c-2.439-5.666-9.936-10.967-16.324-17.196C131.092,336.126,132.433,332.825,132.433,332.825z" style="fill:#2B56E0;"/>
				<path d="M81.944,360.374c0,0-0.104,0.005-0.287,0.019c-1.142,0.086-4.292,0.259-4.931,1.679&#10;&#9;&#9;&#9;&#9;&#9;c-0.741,1.646-0.998,9.828,4.353,10.075c5.352,0.247-0.988-4.024,0.834-5.784L81.944,360.374z" style="fill:#092B96;"/>
				<path d="M87.707,358.933l33.344-3.54c0,0,3.623,1.564,14.82,6.01c6.801,2.7,13.881,5.449,17.784,7.245&#10;&#9;&#9;&#9;&#9;&#9;c-2.844,2.3-8.581,3.732-18.955,3.33c-31.862-1.235-46.334-6.129-46.334-6.129L87.707,358.933z" style="fill:#092B96;"/>
				<path d="M88.366,365.849c0,0-4.034-1.688-6.175,0.576c-3.085,3.263-0.247-6.051-0.247-6.051l5.763-1.441&#10;&#9;&#9;&#9;&#9;&#9;L88.366,365.849z" style="fill:#FFA683;"/>
			</g>
			<g>
				<path d="M163.646,277.391l-9.698-7.985c-0.328-0.273-0.427-0.737-0.238-1.124&#10;&#9;&#9;&#9;&#9;&#9;c1.708-3.482,0.735-7.849-2.667-10.209c-3.123-2.161-7.431-1.821-10.167,0.805c-0.543,0.52-0.992,1.094-1.357,1.699&#10;&#9;&#9;&#9;&#9;&#9;c-2.019,3.362-1.337,7.787,1.764,10.37c2.924,2.435,7.053,2.449,9.976,0.28c0.092-0.068,0.195-0.116,0.302-0.148&#10;&#9;&#9;&#9;&#9;&#9;c0.289-0.083,0.607-0.021,0.846,0.178l9.698,7.985c0.256,0.213,0.57,0.301,0.88,0.27c0.307-0.028,0.6-0.172,0.813-0.428&#10;&#9;&#9;&#9;&#9;&#9;C164.224,278.572,164.155,277.815,163.646,277.391z M151.005,268.522c-2.093,2.514-5.824,2.854-8.338,0.761&#10;&#9;&#9;&#9;&#9;&#9;c-2.514-2.093-2.854-5.824-0.761-8.338c2.093-2.514,5.824-2.854,8.338-0.761C152.758,262.278,153.099,266.009,151.005,268.522z" style="fill:#FFFFFF;"/>
				<path d="M150.244,260.185c-2.514-2.093-6.244-1.753-8.338,0.761c-2.093,2.514-1.753,6.244,0.761,8.338&#10;&#9;&#9;&#9;&#9;&#9;c2.514,2.093,6.244,1.753,8.338-0.761C153.099,266.009,152.758,262.278,150.244,260.185z" style="fill:#379CF7;"/>
			</g>
			<path d="M158.462,272.61c-0.861-0.117-1.817,0.556-2.657,1.401c-0.245-0.817-0.676-2.034-1.122-2.217&#10;&#9;&#9;&#9;&#9;c-0.679-0.278-1.482,5.341-1.482,5.341l0.479-0.406c-0.075,0.119-0.118,0.189-0.118,0.189l4.721,2.448&#10;&#9;&#9;&#9;&#9;C161.295,275.212,160.607,272.903,158.462,272.61z" style="fill:#FFA683;"/>
			<path d="M102.786,315.286c0.942-9.708,2.341-20.087,4.15-22.875c0.914-1.408,1.734-2.387,2.742-3.04&#10;&#9;&#9;&#9;&#9;c-0.009-0.009-0.009-0.009-0.009-0.009s-8.785,5.595-12.412,14.24C95.503,307.798,98.86,312.031,102.786,315.286z" style="fill:#379CF7;"/>
			<g>
				<path d="M126.712,288.987l-0.305-3.822c1.214-0.195,2.349-0.74,3.245-1.668&#10;&#9;&#9;&#9;&#9;&#9;c2.375-2.473,2.336-7.132,0.201-9.773c-1.979,0.597-4.497,0.188-4.588,1.272c-0.149,1.72-0.312,3.096-0.312,3.096&#10;&#9;&#9;&#9;&#9;&#9;c-1.635-1.032-3.362-0.883-3.135,1.311c0.091,0.876,0.714,2.278,1.356,2.388c0,0,0.493,3.725-3.18,5.172c0,0,0,0-0.006-0.006&#10;&#9;&#9;&#9;&#9;&#9;l-0.007,1.324L126.712,288.987z" style="fill:#FFA683;"/>
				<path d="M113.612,276.122c1.612-6.634,4.211-10.376,11.288-10.55c6.453-0.158,7.308,5.21,7.308,5.21&#10;&#9;&#9;&#9;&#9;&#9;c-0.202,4.645-6.798,2.449-6.946,4.211c-0.145,1.722-0.31,3.096-0.31,3.096c-1.636-1.03-3.358-0.882-3.134,1.311&#10;&#9;&#9;&#9;&#9;&#9;c0.09,0.881,0.716,2.279,1.36,2.392c0,0,0.492,3.723-3.183,5.17C119.994,286.961,112.006,282.735,113.612,276.122z" style="fill:#092B96;"/>
				<path d="M113.612,276.122c1.612-6.634,4.211-10.376,11.288-10.55c4.282-0.105,6.098,2.223,6.836,3.802&#10;&#9;&#9;&#9;&#9;&#9;c-3.146-2.977-10.03-4.78-14.347,2.146c-3.734,5.991-1.38,13.234,5.531,12.439c-0.357,1.082-1.156,2.305-2.926,3.002&#10;&#9;&#9;&#9;&#9;&#9;C119.994,286.961,112.006,282.735,113.612,276.122z" style="fill:#09256B;"/>
				<path d="M124.944,286.382c-0.608-0.376-1.302-2.315-1.302-2.315c0.724,0.839,2.769,1.099,2.769,1.099&#10;&#9;&#9;&#9;&#9;&#9;l0.299,3.821l-1.51-0.16C125.241,287.632,125.203,286.543,124.944,286.382z" style="fill:#EF7F5E;"/>
			</g>
			<path d="M101.337,334.166c0,0,1.972-36.159,5.594-41.757c1.513-2.339,2.778-3.486,5.063-3.952&#10;&#9;&#9;&#9;&#9;c1.424-0.29,6.564-0.454,8.011-0.317c3.15,0.298,11.037,1.344,12.943,2.118c2.635,1.07,13.099,10.182,13.099,10.182l7.031-24.045&#10;&#9;&#9;&#9;&#9;l5.804,2.161c0,0-5.66,35.053-10.189,35.135c-4.528,0.082-16.117-6.381-16.117-6.381s-0.868,22.048,3.413,26.082&#10;&#9;&#9;&#9;&#9;C135.991,333.393,117.891,341.747,101.337,334.166z" style="fill:#379CF7;"/>
			<path d="M106.967,291.37c1.587-1.293,2.702-2.009,2.702-2.009s0,0,0.009,0.009&#10;&#9;&#9;&#9;&#9;c-1.007,0.653-1.828,1.632-2.742,3.04c-1.809,2.788-3.208,13.167-4.15,22.875c-0.963-0.798-1.89-1.655-2.717-2.556&#10;&#9;&#9;&#9;&#9;C100.496,306.954,101.961,296.752,106.967,291.37z" style="fill:#147AC6;"/>
			<path d="M126.09,304.617c-0.619-1.238,6.488,2.693,6.488,2.693s-0.868,22.048,3.413,26.082&#10;&#9;&#9;&#9;&#9;c0,0-1.265,0.581-3.417,1.296c-2.468-7.373-1.907-17.327-2.359-20.789C129.597,309.155,126.709,305.855,126.09,304.617z" style="fill:#63B8F7;"/>
		</g>
		<g>
			<g>
				<path d="M366.802,367.775c-0.007,0.341-0.028,0.722-0.071,1.122c-0.136,1.249-1.447,1.936-1.749,2.078&#10;&#9;&#9;&#9;&#9;&#9;c0.167,0.015,0.318,0.047,0.445,0.103c2.154,0.937,3.387,1.178,5.48,0.285c0.163-0.069,0.333-0.071,0.482-0.022&#10;&#9;&#9;&#9;&#9;&#9;c-0.082-1.047-0.285-2.498-0.447-3.567H366.802z" style="fill:#FFA683;"/>
				<path d="M371.858,374.596c0.046-0.889,0.026-1.888-0.003-2.641c-0.018-0.472-0.505-0.78-0.939-0.595&#10;&#9;&#9;&#9;&#9;&#9;c-2.099,0.897-3.333,0.658-5.49-0.282c-1.656-0.721-7.019,2.272-8.337,3.146c-0.007,0.005-0.014,0.009-0.021,0.014&#10;&#9;&#9;&#9;&#9;&#9;c-0.681,0.458-0.338,1.528,0.483,1.528h13.073C371.282,375.767,371.824,375.253,371.858,374.596z" style="fill:#2B56E0;"/>
			</g>
			<g>
				<path d="M388.448,366.97c-0.007,0.341-0.028,0.722-0.071,1.122c-0.136,1.249-1.447,1.936-1.749,2.078&#10;&#9;&#9;&#9;&#9;&#9;c0.167,0.015,0.318,0.047,0.445,0.103c2.154,0.937,3.386,1.178,5.48,0.285c0.163-0.069,0.333-0.071,0.482-0.022&#10;&#9;&#9;&#9;&#9;&#9;c-0.081-1.047-0.285-2.498-0.447-3.567H388.448z" style="fill:#FFA683;"/>
				<path d="M393.504,373.792c0.045-0.889,0.026-1.888-0.003-2.641c-0.018-0.472-0.505-0.78-0.939-0.595&#10;&#9;&#9;&#9;&#9;&#9;c-2.099,0.897-3.333,0.658-5.49-0.282c-1.656-0.722-7.019,2.272-8.337,3.146c-0.007,0.005-0.014,0.009-0.021,0.014&#10;&#9;&#9;&#9;&#9;&#9;c-0.681,0.458-0.338,1.528,0.483,1.528h13.073C392.927,374.962,393.47,374.448,393.504,373.792z" style="fill:#2B56E0;"/>
			</g>
			<path d="M389.455,291.583c0.02,1.834,1.303,6.813,1.303,12.382c0,10.688-5.44,25.032-5.44,25.032&#10;&#9;&#9;&#9;&#9;l9.075,38.571l-7.679,0.233l-17.012-37.736l1.233-40.374L389.455,291.583z" style="fill:#092B96;"/>
			<path d="M383.346,289.416c0,0-1.212,12.569-3.767,21.831c-2.135,7.741-17.617,19.486-17.617,19.486&#10;&#9;&#9;&#9;&#9;l10.054,37.547h-6.276l-22.463-36.48c-0.562-1.563-0.475-3.286,0.241-4.784l21.443-40.921L383.346,289.416z" style="fill:#2B56E0;"/>
			<path d="M330.358,282.663l-8.057,0.011c0,0,0.403,4.823,8.782,4.823L330.358,282.663z" style="fill:#FFA683;"/>
			<g>
				<path d="M373.684,241.757c0.06-0.403,0.195-1.491,0.133-2.113c-0.246-2.49-1.737-2.931-3.457-1.39&#10;&#9;&#9;&#9;&#9;&#9;c0,0-1.56-0.97-2.414-2.902c-0.507-1.147-2.654-0.268-4.327-0.599c-1.448,3.519-0.12,8.361,2.93,10.617&#10;&#9;&#9;&#9;&#9;&#9;c1.24,0.917,2.394,1.029,3.861,1.021l0.412,6.22l7.55-2.013l-0.112-3.66C375.366,247.024,373.267,244.538,373.684,241.757z" style="fill:#FFA683;"/>
			</g>
			<path d="M367.818,368.279c-1.592-2.698-21.305-36.296-18.402-40.395&#10;&#9;&#9;&#9;&#9;c3.025-4.271,16.549-30.785,16.549-30.785l-3.203-4.093c0,0-0.966,0.793-2.502,2.059l-16.742,31.95&#10;&#9;&#9;&#9;&#9;c-0.717,1.498-0.803,3.221-0.241,4.784l22.463,36.48H367.818z" style="opacity:0.4;fill:#092B96;"/>
			<path d="M365.205,259.225c0.405-7.681,12.354-8.284,13.64-8.304c1.711-0.025,3.312,0.893,4.407,2.105&#10;&#9;&#9;&#9;&#9;c1.921,2.127,5.554,6.784,4.388,13.348c-2.989,16.827,3.203,27.56,3.995,32.843c-11.111,4.496-34.641-1.082-34.641-1.082&#10;&#9;&#9;&#9;&#9;l7.178-27.348L365.205,259.225z" style="fill:#379CF7;"/>
			<path d="M356.29,277.569c0,0,7.315-26.529,16.638-25.002c10.321,1.691-6.673,34.611-6.673,34.611&#10;&#9;&#9;&#9;&#9;l-35.234,0.712l-0.712-5.605L356.29,277.569z" style="fill:#379CF7;"/>
			<path d="M371.567,286.289c-1.73,5.221-7.474,4.803-7.474,4.803l-3.202,7.852&#10;&#9;&#9;&#9;&#9;c-2.405-0.451-3.894-0.805-3.894-0.805l2.84-10.828l6.42-0.129c0,0,11.818-22.912,9.75-31.488&#10;&#9;&#9;&#9;&#9;C376.378,256.435,379.186,263.321,371.567,286.289z" style="fill:#147AC6;"/>
			<path d="M381.536,268.627c-11.919-0.613-7.896-23.823-7.761-28.317c0.076-2.497-1.698-3.596-3.419-2.06&#10;&#9;&#9;&#9;&#9;c0,0-1.553-0.965-2.413-2.896c-0.507-1.15-3.173-0.275-4.847-0.605c3.403-13.724,19.505-13.081,26.626,5.494&#10;&#9;&#9;&#9;&#9;C395.861,256.26,400.577,269.606,381.536,268.627z" style="fill:#092B96;"/>
			<path d="M371.438,247.651c0.3-0.3,1.568-2.803,1.568-2.803c-0.634,0.609-1.805,1.183-2.329,1.423&#10;&#9;&#9;&#9;&#9;c-0.165,0.076-0.266,0.118-0.266,0.118l0.412,6.22l0.846-0.226C371.477,250.499,371.245,247.844,371.438,247.651z" style="fill:#EF7F5E;"/>
			<path d="M362.94,265.78c1.557-7.318,6.383-11.945,7.566-12.988c-8.138,2.742-14.217,24.777-14.217,24.777&#10;&#9;&#9;&#9;&#9;l-25.981,4.716l29.073-1.735C359.382,280.55,361.161,274.144,362.94,265.78z" style="fill:#63B8F7;"/>
			<path d="M376.109,228.766c8.663,3.889,13.633,17.969,11.255,39.614&#10;&#9;&#9;&#9;&#9;c12.058-2.001,7.765-14.031,2.358-28.136c-7.12-18.575-23.223-19.219-26.626-5.494&#10;&#9;&#9;&#9;&#9;C363.096,234.75,367.389,224.852,376.109,228.766z" style="fill:#052575;"/>
		</g>
		<g>
			<g>
				<g>
					<path d="M450.851,295.631c-0.565,3.059-10.614,20.777-16.824,32.632&#10;&#9;&#9;&#9;&#9;&#9;&#9;c-4.86,9.277-3.822,18.092-3.141,21.491h1.191c-0.714-4.098-1.003-3.471,0.026-9.863c1.129-7.011,12.086-11.884,18.973-25.395&#10;&#9;&#9;&#9;&#9;&#9;&#9;C457.964,300.984,451.416,292.572,450.851,295.631z" style="fill:#379CF7;"/>
					<path d="M427.75,342.483c0.349,3.362,0.634,5.683,0.754,7.271h0.604&#10;&#9;&#9;&#9;&#9;&#9;&#9;c0.204-5.7,0.552-15.546,0.319-22.125c-0.344-9.688,2.324-13.681,3.825-30.018c1.5-16.337-2.727-39.46-2.727-39.46&#10;&#9;&#9;&#9;&#9;&#9;&#9;s-10.152,20.75-6.613,43.845C427.451,325.091,426.212,327.665,427.75,342.483z" style="fill:#379CF7;"/>
					<path d="M424.884,339.227c0.072,3.656,0.694,8.135,1.066,10.527h0.643&#10;&#9;&#9;&#9;&#9;&#9;&#9;c-0.108-1.695-0.234-4.802-0.36-10.322c-0.39-16.73-2.099-16.536-4.997-27.734c-2.893-11.19-7.555-15.839-12.395-21.469&#10;&#9;&#9;&#9;&#9;&#9;&#9;c0,0-4.993,8.044,2.056,19.994c7.049,11.951,9.838,12.776,11.504,18.66C424.06,334.767,424.774,333.975,424.884,339.227z" style="fill:#379CF7;"/>
					<path d="M423.235,349.754h0.702c0.345-2.287,0.372-5.708-1.513-8.899&#10;&#9;&#9;&#9;&#9;&#9;&#9;c-3.213-5.441-5.717-12.619-10.672-17.36c-6.771-6.477-11.475-22.671-11.475-22.671s-3.557,14.38,3.328,25.781&#10;&#9;&#9;&#9;&#9;&#9;&#9;c6.885,11.4,12.646,13.555,15.721,15.416C422.612,344.009,423.257,347.349,423.235,349.754z" style="fill:#379CF7;"/>
				</g>
				<path d="M428.543,349.754h0.114l0.53-2.218c0.201-5.8,0.446-14.119,0.241-19.908&#10;&#9;&#9;&#9;&#9;&#9;c-0.344-9.688,2.324-13.681,3.825-30.018c1.5-16.337-2.727-39.46-2.727-39.46s-3.864,32.223-2.796,46.998&#10;&#9;&#9;&#9;&#9;&#9;C428.717,318.818,428.57,345.796,428.543,349.754z" style="fill:#1D88D8;"/>
				<path d="M451.235,295.036c0.098,4.346-0.247,19.133-8.953,26.998&#10;&#9;&#9;&#9;&#9;&#9;c-10.086,9.112-13.305,19.171-10.296,27.721h0.092c-0.714-4.098-1.003-3.471,0.026-9.863&#10;&#9;&#9;&#9;&#9;&#9;c1.129-7.011,12.086-11.884,18.973-25.395C457.202,302.479,452.703,294.504,451.235,295.036z" style="fill:#1D88D8;"/>
				<path d="M426.255,349.754h0.337c-0.108-1.694-0.234-4.799-0.36-10.322&#10;&#9;&#9;&#9;&#9;&#9;c-0.39-16.73-2.099-16.536-4.997-27.734c-2.893-11.19-7.555-15.839-12.395-21.469c0,0-0.203,11.119,7.007,21.814&#10;&#9;&#9;&#9;&#9;&#9;c7.21,10.694,9.212,18.574,9.412,21.529C425.425,336.01,426.044,346.245,426.255,349.754z" style="fill:#1D88D8;"/>
				<path d="M423.384,349.754h0.553c0.345-2.287,0.372-5.708-1.513-8.899&#10;&#9;&#9;&#9;&#9;&#9;c-3.213-5.441-5.717-12.619-10.672-17.36c-6.771-6.477-11.475-22.671-11.475-22.671s0.216,18.325,5.557,23.673&#10;&#9;&#9;&#9;&#9;&#9;c5.34,5.347,5.207,3.799,9.346,9.076c4.139,5.277,5.407,6.754,7.009,9.991C423.214,345.634,423.39,348.179,423.384,349.754z" style="fill:#1D88D8;"/>
			</g>
			<path d="M436.533,346.803h-18.717c-1.909,0-3.347,1.738-2.989,3.613l3.667,19.191&#10;&#9;&#9;&#9;&#9;c0.274,1.434,1.528,2.472,2.988,2.472h11.383c1.46,0,2.714-1.037,2.988-2.472l3.667-19.191&#10;&#9;&#9;&#9;&#9;C439.879,348.542,438.442,346.803,436.533,346.803z" style="fill:#D8E8EF;"/>
			<path d="M439.485,349.114c-0.325-1.305-1.501-2.31-2.952-2.31h-18.717c-1.451,0-2.628,1.005-2.952,2.31&#10;&#9;&#9;&#9;&#9;H439.485z" style="fill:#ABD0DD;"/>
			<path d="M436.533,346.803h-4.15c1.909,0,3.347,1.738,2.988,3.613l-3.667,19.191&#10;&#9;&#9;&#9;&#9;c-0.274,1.434-1.528,2.472-2.988,2.472h4.151c1.46,0,2.714-1.037,2.988-2.472l3.667-19.191&#10;&#9;&#9;&#9;&#9;C439.879,348.542,438.442,346.803,436.533,346.803z" style="fill:#ABD0DD;"/>
		</g>
	</g>
</g>
<g id="DESIGNED_BY_FREEPIK">
	<g>
		<g id="XMLID_319_">
			<g id="XMLID_338_">
				<path d="M260.104,465.465c-0.432,0.443-0.803,0.931-1.108,1.453l-0.465-0.241&#10;&#9;&#9;&#9;&#9;&#9;c-0.067-0.298-0.349-0.503-0.659-0.466c-0.331,0.039-0.568,0.339-0.529,0.67c0.039,0.331,0.339,0.568,0.67,0.529&#10;&#9;&#9;&#9;&#9;&#9;c0.066-0.008,0.127-0.026,0.184-0.052l0.451,0.234c-0.251,0.554-0.433,1.139-0.539,1.744l0.747,0.132&#10;&#9;&#9;&#9;&#9;&#9;c0.23-1.306,0.85-2.507,1.792-3.473L260.104,465.465z" style="fill:#1D262D;" id="XMLID_346_"/>
				<path d="M265.592,463.163c-0.171,0-0.341,0.006-0.51,0.017l-0.074-0.626&#10;&#9;&#9;&#9;&#9;&#9;c0.188-0.149,0.296-0.389,0.266-0.645c-0.046-0.393-0.402-0.674-0.795-0.628c-0.393,0.046-0.674,0.402-0.628,0.795&#10;&#9;&#9;&#9;&#9;&#9;c0.03,0.254,0.189,0.461,0.404,0.564l0.074,0.624c-0.714,0.116-1.403,0.332-2.06,0.646l0.327,0.684&#10;&#9;&#9;&#9;&#9;&#9;c0.934-0.447,1.942-0.673,2.995-0.673c0.496,0,0.993,0.053,1.475,0.158l0.161-0.741&#10;&#9;&#9;&#9;&#9;&#9;C266.692,463.222,266.142,463.163,265.592,463.163z" style="fill:#1D262D;" id="XMLID_345_"/>
				<path d="M272.194,465.711c0.331-0.04,0.566-0.341,0.526-0.672&#10;&#9;&#9;&#9;&#9;&#9;c-0.04-0.331-0.341-0.566-0.672-0.526c-0.309,0.038-0.535,0.304-0.53,0.609l-0.416,0.363c-0.418-0.43-0.889-0.813-1.408-1.139&#10;&#9;&#9;&#9;&#9;&#9;l-0.404,0.641c1.134,0.715,2.021,1.726,2.563,2.925l0.69-0.313c-0.251-0.554-0.567-1.072-0.942-1.545l0.402-0.351&#10;&#9;&#9;&#9;&#9;&#9;C272.065,465.716,272.129,465.719,272.194,465.711z" style="fill:#1D262D;" id="XMLID_344_"/>
				<path d="M265.044,473.372c-0.386,0.023-0.775,0.035-1.157,0.035&#10;&#9;&#9;&#9;&#9;&#9;c-0.88,0-1.733-0.061-2.478-0.179c-0.39-0.062-0.846-0.155-1.27-0.292c1.046,1.861,3.069,3.125,5.388,3.125&#10;&#9;&#9;&#9;&#9;&#9;c2.855,0,5.262-1.916,5.95-4.504c-0.682,0.449-1.505,0.825-2.459,1.123C267.839,473.047,266.463,473.286,265.044,473.372z" style="fill:#1D262D;" id="XMLID_343_"/>
				<path d="M265.592,464.68c-3.352,0-6.08,2.666-6.08,5.943&#10;&#9;&#9;&#9;&#9;&#9;c0,0.426,0.046,0.849,0.137,1.261c0.673,0.483,2.706,0.89,5.348,0.731c2.879-0.173,5.297-0.957,6.672-2.159&#10;&#9;&#9;&#9;&#9;&#9;c-0.006-0.195-0.021-0.39-0.045-0.582C271.244,466.913,268.65,464.68,265.592,464.68z M263.432,471.194&#10;&#9;&#9;&#9;&#9;&#9;c-1.02,0-1.85-0.83-1.85-1.85c0-1.02,0.83-1.85,1.85-1.85c1.02,0,1.85,0.83,1.85,1.85&#10;&#9;&#9;&#9;&#9;&#9;C265.282,470.365,264.452,471.194,263.432,471.194z M268.17,470.286c-0.75,0-1.36-0.61-1.36-1.36s0.61-1.361,1.36-1.361&#10;&#9;&#9;&#9;&#9;&#9;c0.75,0,1.361,0.61,1.361,1.361S268.92,470.286,268.17,470.286z" style="fill:#1D262D;" id="XMLID_339_"/>
			</g>
			<path d="M281.595,466.547c-0.295-0.116-0.805-0.309-1.382-0.237&#10;&#9;&#9;&#9;&#9;c-0.551,0.069-0.844,0.341-0.844,1.007v0.866h2.228v1.717h-2.228v5.455h-1.932v-5.455h-1.34v-1.717h1.34v-0.888&#10;&#9;&#9;&#9;&#9;c0-1.68,0.896-2.783,2.568-2.783c0.643,0,1.157,0.122,1.59,0.308L281.595,466.547z" style="fill:#1D262D;" id="XMLID_336_"/>
			<path d="M286.298,469.879c-0.177-0.03-0.358-0.046-0.526-0.046&#10;&#9;&#9;&#9;&#9;c-0.896,0-1.51,0.548-1.51,1.614v3.908h-1.932v-7.172h1.873v0.785c0.451-0.673,1.14-0.977,2.021-0.977&#10;&#9;&#9;&#9;&#9;c0.414,0,0.848,0.128,1.094,0.337L286.298,469.879z" style="fill:#1D262D;" id="XMLID_334_"/>
			<path d="M293.965,471.757c0,0.222-0.015,0.489-0.037,0.651h-5.085&#10;&#9;&#9;&#9;&#9;c0.207,1.036,0.933,1.488,1.843,1.488c0.622,0,1.295-0.252,1.813-0.688l1.133,1.243c-0.814,0.748-1.85,1.088-3.057,1.088&#10;&#9;&#9;&#9;&#9;c-2.198,0-3.723-1.495-3.723-3.753c0-2.258,1.48-3.797,3.627-3.797C292.544,467.99,293.958,469.522,293.965,471.757z&#10;&#9;&#9;&#9;&#9; M288.851,471.091h3.175c-0.177-0.918-0.733-1.436-1.562-1.436C289.554,469.655,289.021,470.203,288.851,471.091z" style="fill:#1D262D;" id="XMLID_331_"/>
			<path d="M301.618,471.757c0,0.222-0.015,0.489-0.037,0.651h-5.085&#10;&#9;&#9;&#9;&#9;c0.207,1.036,0.933,1.488,1.843,1.488c0.622,0,1.295-0.252,1.814-0.688l1.132,1.243c-0.814,0.748-1.85,1.088-3.057,1.088&#10;&#9;&#9;&#9;&#9;c-2.198,0-3.723-1.495-3.723-3.753c0-2.258,1.48-3.797,3.627-3.797C300.197,467.99,301.611,469.522,301.618,471.757z&#10;&#9;&#9;&#9;&#9; M296.504,471.091h3.175c-0.178-0.918-0.733-1.436-1.562-1.436C297.207,469.655,296.674,470.203,296.504,471.091z" style="fill:#1D262D;" id="XMLID_328_"/>
			<path d="M309.964,471.764c0,2.154-1.495,3.775-3.471,3.775&#10;&#9;&#9;&#9;&#9;c-0.962,0-1.643-0.378-2.109-0.933v3.708h-1.924v-10.133h1.887v0.792c0.466-0.585,1.155-0.984,2.139-0.984&#10;&#9;&#9;&#9;&#9;C308.469,467.99,309.964,469.61,309.964,471.764z M304.287,471.764c0,1.132,0.748,1.976,1.843,1.976&#10;&#9;&#9;&#9;&#9;c1.14,0,1.85-0.881,1.85-1.976c0-1.095-0.71-1.976-1.85-1.976C305.035,469.788,304.287,470.632,304.287,471.764z" style="fill:#1D262D;" id="XMLID_325_"/>
			<path d="M313.068,465.836c0,0.696-0.54,1.229-1.236,1.229&#10;&#9;&#9;&#9;&#9;c-0.696,0-1.229-0.533-1.229-1.229c0-0.696,0.533-1.243,1.229-1.243C312.527,464.592,313.068,465.14,313.068,465.836z&#10;&#9;&#9;&#9;&#9; M312.809,475.354h-1.932v-7.172h1.932V475.354z" style="fill:#1D262D;" id="XMLID_322_"/>
			<path d="M316.032,470.736l2.701-2.554h2.368l-3.479,3.375l3.501,3.797h-2.376&#10;&#9;&#9;&#9;&#9;l-2.716-2.901v2.901H314.1v-10.658h1.932V470.736z" style="fill:#1D262D;" id="XMLID_320_"/>
		</g>
		<g>
			<path d="M184.412,475.289v-1.055c-0.527,0.718-1.391,1.23-2.387,1.23c-1.846,0-3.149-1.406-3.149-3.706&#10;&#9;&#9;&#9;&#9;c0-2.256,1.289-3.721,3.149-3.721c0.952,0,1.816,0.469,2.387,1.245v-3.765h1.099v9.77H184.412z M184.412,473.37v-3.208&#10;&#9;&#9;&#9;&#9;c-0.395-0.615-1.245-1.143-2.124-1.143c-1.421,0-2.27,1.172-2.27,2.739c0,1.567,0.85,2.724,2.27,2.724&#10;&#9;&#9;&#9;&#9;C183.168,474.483,184.017,473.986,184.412,473.37z" style="fill:#1D262D;"/>
			<path d="M186.932,471.744c0-2.051,1.465-3.706,3.486-3.706c2.139,0,3.398,1.67,3.398,3.794v0.279h-5.727&#10;&#9;&#9;&#9;&#9;c0.088,1.333,1.025,2.446,2.549,2.446c0.805,0,1.626-0.322,2.182-0.894l0.527,0.718c-0.703,0.703-1.655,1.084-2.812,1.084&#10;&#9;&#9;&#9;&#9;C188.44,475.465,186.932,473.956,186.932,471.744z M190.403,468.947c-1.509,0-2.256,1.274-2.314,2.358h4.643&#10;&#9;&#9;&#9;&#9;C192.718,470.25,192.015,468.947,190.403,468.947z" style="fill:#1D262D;"/>
			<path d="M194.607,474.351l0.571-0.791c0.469,0.542,1.362,1.011,2.329,1.011c1.084,0,1.67-0.513,1.67-1.216&#10;&#9;&#9;&#9;&#9;c0-1.714-4.38-0.659-4.38-3.281c0-1.098,0.952-2.036,2.636-2.036c1.201,0,2.051,0.454,2.622,1.026l-0.513,0.762&#10;&#9;&#9;&#9;&#9;c-0.424-0.513-1.201-0.894-2.109-0.894c-0.967,0-1.567,0.483-1.567,1.113c0,1.552,4.38,0.527,4.38,3.281&#10;&#9;&#9;&#9;&#9;c0,1.187-0.952,2.138-2.783,2.138C196.306,475.465,195.325,475.113,194.607,474.351z" style="fill:#1D262D;"/>
			<path d="M201.477,466.471c0-0.41,0.337-0.747,0.732-0.747c0.41,0,0.747,0.337,0.747,0.747&#10;&#9;&#9;&#9;&#9;c0,0.41-0.337,0.732-0.747,0.732C201.814,467.203,201.477,466.881,201.477,466.471z M201.667,475.289v-7.075h1.099v7.075H201.667&#10;&#9;&#9;&#9;&#9;z" style="fill:#1D262D;"/>
			<path d="M204.582,477.105l0.556-0.82c0.586,0.703,1.289,0.967,2.3,0.967c1.172,0,2.27-0.571,2.27-2.124&#10;&#9;&#9;&#9;&#9;v-1.011c-0.513,0.718-1.377,1.26-2.373,1.26c-1.845,0-3.149-1.377-3.149-3.662c0-2.27,1.289-3.677,3.149-3.677&#10;&#9;&#9;&#9;&#9;c0.952,0,1.802,0.469,2.373,1.245v-1.069h1.098v6.87c0,2.344-1.641,3.076-3.369,3.076&#10;&#9;&#9;&#9;&#9;C206.237,478.16,205.417,477.926,204.582,477.105z M209.709,473.253v-3.091c-0.381-0.615-1.23-1.143-2.109-1.143&#10;&#9;&#9;&#9;&#9;c-1.421,0-2.27,1.128-2.27,2.695c0,1.553,0.849,2.695,2.27,2.695C208.478,474.41,209.328,473.868,209.709,473.253z" style="fill:#1D262D;"/>
			<path d="M217.413,475.289v-4.629c0-1.245-0.63-1.641-1.582-1.641c-0.865,0-1.685,0.527-2.095,1.099v5.17&#10;&#9;&#9;&#9;&#9;h-1.099v-7.075h1.099v1.025c0.498-0.586,1.464-1.201,2.519-1.201c1.48,0,2.256,0.747,2.256,2.285v4.966H217.413z" style="fill:#1D262D;"/>
			<path d="M219.932,471.744c0-2.051,1.465-3.706,3.486-3.706c2.139,0,3.398,1.67,3.398,3.794v0.279h-5.727&#10;&#9;&#9;&#9;&#9;c0.088,1.333,1.025,2.446,2.549,2.446c0.806,0,1.626-0.322,2.183-0.894l0.527,0.718c-0.703,0.703-1.655,1.084-2.812,1.084&#10;&#9;&#9;&#9;&#9;C221.441,475.465,219.932,473.956,219.932,471.744z M223.404,468.947c-1.509,0-2.256,1.274-2.314,2.358h4.643&#10;&#9;&#9;&#9;&#9;C225.718,470.25,225.015,468.947,223.404,468.947z" style="fill:#1D262D;"/>
			<path d="M233.35,475.289v-1.055c-0.527,0.718-1.392,1.23-2.388,1.23c-1.846,0-3.149-1.406-3.149-3.706&#10;&#9;&#9;&#9;&#9;c0-2.256,1.289-3.721,3.149-3.721c0.952,0,1.817,0.469,2.388,1.245v-3.765h1.098v9.77H233.35z M233.35,473.37v-3.208&#10;&#9;&#9;&#9;&#9;c-0.396-0.615-1.245-1.143-2.124-1.143c-1.421,0-2.27,1.172-2.27,2.739c0,1.567,0.849,2.724,2.27,2.724&#10;&#9;&#9;&#9;&#9;C232.105,474.483,232.954,473.986,233.35,473.37z" style="fill:#1D262D;"/>
			<path d="M239.692,475.289v-9.77h1.098v3.765c0.572-0.776,1.421-1.245,2.388-1.245&#10;&#9;&#9;&#9;&#9;c1.845,0,3.149,1.465,3.149,3.721c0,2.299-1.304,3.706-3.149,3.706c-0.996,0-1.86-0.513-2.388-1.23v1.055H239.692z&#10;&#9;&#9;&#9;&#9; M242.9,474.483c1.436,0,2.285-1.157,2.285-2.724c0-1.568-0.85-2.739-2.285-2.739c-0.864,0-1.728,0.527-2.109,1.143v3.208&#10;&#9;&#9;&#9;&#9;C241.171,473.986,242.036,474.483,242.9,474.483z" style="fill:#1D262D;"/>
			<path d="M247.528,477.061c0.161,0.073,0.425,0.117,0.601,0.117c0.483,0,0.805-0.161,1.055-0.747&#10;&#9;&#9;&#9;&#9;l0.469-1.069l-2.959-7.148h1.187l2.358,5.8l2.344-5.8h1.201l-3.545,8.51c-0.425,1.025-1.143,1.421-2.08,1.435&#10;&#9;&#9;&#9;&#9;c-0.234,0-0.601-0.044-0.805-0.103L247.528,477.061z" style="fill:#1D262D;"/>
		</g>
	</g>
</g>
</svg>