<svg version="1.2" preserveAspectRatio="xMidYMid meet" viewBox="11.850000000000001 148.3499964396 342.75 74.99999820000001" zoomAndPan="magnify" xmlns:xlink="http://www.w3.org/1999/xlink" xmlns="http://www.w3.org/2000/svg" style="max-height: 500px" width="342.75" height="74.99999820000001"><defs><clipPath id="47d054417a"><path d="M 14.300781 153 L 83 153 L 83 221.835938 L 14.300781 221.835938 Z M 14.300781 153"/></clipPath><clipPath id="a28e841560"><path d="M 69 155 L 99.800781 155 L 99.800781 175 L 69 175 Z M 69 155"/></clipPath></defs><g id="e18a1080a0"><path d="M 42.886719 195.136719 C 43.042969 195.246094 43.199219 195.355469 43.359375 195.457031 C 44.890625 196.414062 46.488281 196.820312 47.863281 196.605469 C 49.539062 196.335938 50.6875 195.132812 50.929688 193.363281 C 51.105469 192.128906 50.210938 190.4375 49.15625 188.710938 L 42.886719 195.136719" style="stroke:none;fill-rule:nonzero;fill:#ffffff;fill-opacity:1;"/><path d="M 50.773438 177.839844 C 50.066406 178.101562 49.519531 178.433594 49.144531 178.820312 C 47.9375 180.082031 48.40625 181.707031 49.695312 183.992188 L 55.75 177.785156 C 54.109375 177.316406 52.421875 177.234375 50.773438 177.839844" style="stroke:none;fill-rule:nonzero;fill:#ffffff;fill-opacity:1;"/><path d="M 64.136719 182.75 C 62.527344 181.507812 60.648438 180.058594 58.640625 178.984375 L 51.25 186.566406 C 52.726562 188.9375 54.144531 191.378906 53.816406 193.769531 C 53.382812 196.824219 51.28125 199.011719 48.3125 199.472656 C 46.253906 199.804688 43.949219 199.246094 41.824219 197.929688 C 41.480469 197.71875 41.144531 197.492188 40.820312 197.253906 L 38.140625 200.003906 L 36.054688 197.972656 L 38.578125 195.394531 C 38.382812 195.214844 38.183594 195.03125 37.996094 194.839844 C 36.296875 193.148438 34.769531 191.179688 33.175781 189.054688 L 35.5 187.308594 C 37.199219 189.566406 38.816406 191.628906 40.605469 193.308594 L 47.582031 186.160156 C 45.789062 183.140625 44.285156 179.695312 47.039062 176.816406 C 47.726562 176.097656 48.636719 175.53125 49.769531 175.113281 C 52.628906 174.0625 55.417969 174.460938 57.992188 175.484375 L 61.503906 171.882812 L 63.589844 173.917969 L 60.746094 176.828125 C 62.6875 177.960938 64.445312 179.3125 65.910156 180.445312 Z M 74.835938 167.355469 C 75.347656 167.867188 75.925781 168.261719 76.320312 168.503906 C 76.832031 168.816406 77.390625 169.097656 77.980469 169.339844 C 77.894531 167.992188 77.808594 166.507812 77.707031 164.875 L 77.582031 162.757812 C 77.550781 162.136719 77.53125 161.796875 77.519531 161.671875 C 77.507812 161.609375 77.496094 161.535156 77.484375 161.441406 C 77.28125 159.773438 75.933594 158.496094 74.273438 158.402344 L 55.039062 157.265625 C 54.027344 157.203125 53.035156 157.582031 52.308594 158.308594 L 21.109375 189.511719 C 19.726562 190.886719 19.710938 193.121094 21.074219 194.484375 L 41.4375 214.847656 C 42.800781 216.207031 45.027344 216.191406 46.410156 214.808594 L 77.925781 183.292969 C 78.261719 182.953125 78.46875 182.535156 78.507812 182.113281 L 78.511719 182.03125 C 78.695312 180.914062 78.59375 178.914062 78.34375 174.886719 C 76.613281 174.417969 75.007812 173.757812 73.625 172.902344 C 72.691406 172.339844 71.875 171.695312 71.183594 171.003906 C 70.394531 170.214844 69.789062 169.359375 69.339844 168.46875 C 66.972656 167.273438 66.042969 163.890625 68.246094 161.691406 C 69.933594 160.003906 72.636719 160.105469 74.222656 161.691406 C 75.777344 163.246094 75.785156 165.5625 74.660156 167.148438 C 74.714844 167.21875 74.765625 167.285156 74.835938 167.355469" style="stroke:none;fill-rule:nonzero;fill:#ffffff;fill-opacity:1;"/><g clip-path="url(#47d054417a)" clip-rule="nonzero"><path d="M 80.230469 175.3125 C 80.472656 179.175781 80.546875 181.042969 80.355469 182.285156 C 80.273438 183.148438 79.875 183.964844 79.238281 184.605469 L 47.71875 216.121094 C 45.617188 218.226562 42.207031 218.246094 40.125 216.160156 L 19.761719 195.792969 C 17.675781 193.707031 17.695312 190.300781 19.800781 188.195312 L 51 156.996094 C 52.097656 155.898438 53.609375 155.320312 55.152344 155.410156 L 74.378906 156.546875 C 76.9375 156.695312 79.019531 158.664062 79.332031 161.222656 C 79.332031 161.242188 79.332031 161.253906 79.332031 161.261719 C 79.363281 161.378906 79.375 161.566406 79.4375 162.652344 L 79.5625 164.769531 C 79.675781 166.710938 79.78125 168.421875 79.878906 169.964844 C 80.605469 170.152344 81.359375 170.289062 82.140625 170.382812 C 81.992188 168.25 81.816406 165.761719 81.628906 162.828125 C 81.3125 157.9375 81.421875 159.511719 81.347656 158.898438 C 81.054688 156.535156 79.132812 154.679688 76.726562 154.527344 L 55.078125 153.117188 C 53.640625 153.023438 52.230469 153.554688 51.210938 154.574219 L 16.300781 189.488281 C 14.347656 191.441406 14.347656 194.609375 16.300781 196.5625 L 39.359375 219.617188 C 41.3125 221.574219 44.480469 221.574219 46.433594 219.617188 L 78.613281 187.4375 L 80.175781 185.871094 L 81.691406 184.355469 C 82.230469 183.824219 82.578125 183.128906 82.632812 182.378906 C 82.640625 182.375 82.640625 182.367188 82.640625 182.363281 C 82.828125 181.164062 82.753906 179.238281 82.507812 175.59375 C 81.734375 175.535156 80.972656 175.441406 80.230469 175.3125" style="stroke:none;fill-rule:nonzero;fill:#ffffff;fill-opacity:1;"/></g><g clip-path="url(#a28e841560)" clip-rule="nonzero"><path d="M 97.003906 159.457031 C 96.359375 158.8125 95.597656 158.21875 94.722656 157.683594 C 91.9375 155.972656 88.273438 155.035156 84.394531 155.035156 C 83.445312 155.035156 82.679688 155.804688 82.679688 156.757812 C 82.679688 157.234375 82.871094 157.664062 83.183594 157.96875 C 83.488281 158.28125 83.925781 158.476562 84.394531 158.476562 C 87.648438 158.476562 90.671875 159.238281 92.925781 160.609375 C 93.40625 160.90625 94.019531 161.335938 94.566406 161.890625 C 95.347656 162.664062 96.011719 163.695312 96.011719 164.925781 C 96.011719 167.03125 94.074219 168.53125 92.925781 169.234375 C 90.679688 170.617188 87.648438 171.378906 84.394531 171.378906 C 83.652344 171.378906 82.921875 171.332031 82.203125 171.253906 C 81.421875 171.164062 80.667969 171.039062 79.941406 170.859375 C 79.28125 170.703125 78.648438 170.507812 78.042969 170.277344 C 77.265625 169.984375 76.535156 169.640625 75.871094 169.234375 C 75.390625 168.941406 74.777344 168.515625 74.230469 167.960938 C 74.179688 167.910156 74.136719 167.863281 74.085938 167.804688 C 73.65625 167.347656 73.273438 166.820312 73.042969 166.21875 C 73.484375 165.8125 73.773438 165.230469 73.773438 164.582031 C 73.773438 163.363281 72.78125 162.371094 71.554688 162.371094 C 70.339844 162.371094 69.34375 163.363281 69.34375 164.582031 C 69.34375 164.644531 69.359375 164.695312 69.363281 164.757812 C 69.359375 164.808594 69.34375 164.863281 69.34375 164.925781 C 69.34375 166.304688 69.765625 167.636719 70.542969 168.855469 C 70.894531 169.386719 71.300781 169.902344 71.789062 170.390625 C 72.429688 171.039062 73.191406 171.632812 74.074219 172.171875 C 75.316406 172.933594 76.746094 173.53125 78.28125 173.976562 C 78.894531 174.148438 79.523438 174.3125 80.175781 174.429688 C 80.910156 174.566406 81.671875 174.660156 82.445312 174.722656 C 83.089844 174.78125 83.738281 174.816406 84.394531 174.816406 C 88.273438 174.816406 91.9375 173.875 94.722656 172.171875 C 97.773438 170.304688 99.453125 167.730469 99.453125 164.925781 C 99.453125 162.929688 98.597656 161.046875 97.003906 159.457031" style="stroke:none;fill-rule:nonzero;fill:#ffffff;fill-opacity:1;"/></g><g style="fill:#ffffff;fill-opacity:1;"><g transform="translate(101.806156, 198.374987)"><path d="M 2.6875 -22.40625 L 11.84375 -22.40625 C 13.1875 -22.40625 14.382812 -22.21875 15.4375 -21.84375 C 16.5 -21.46875 17.394531 -20.9375 18.125 -20.25 C 18.863281 -19.570312 19.429688 -18.757812 19.828125 -17.8125 C 20.222656 -16.863281 20.421875 -15.8125 20.421875 -14.65625 L 20.421875 -14.59375 C 20.421875 -13.289062 20.1875 -12.148438 19.71875 -11.171875 C 19.25 -10.191406 18.601562 -9.367188 17.78125 -8.703125 C 16.957031 -8.046875 15.992188 -7.550781 14.890625 -7.21875 C 13.796875 -6.882812 12.617188 -6.71875 11.359375 -6.71875 L 7.609375 -6.71875 L 7.609375 0 L 2.6875 0 Z M 11.515625 -11.109375 C 12.753906 -11.109375 13.710938 -11.429688 14.390625 -12.078125 C 15.078125 -12.734375 15.421875 -13.539062 15.421875 -14.5 L 15.421875 -14.5625 C 15.421875 -15.664062 15.0625 -16.503906 14.34375 -17.078125 C 13.632812 -17.660156 12.660156 -17.953125 11.421875 -17.953125 L 7.609375 -17.953125 L 7.609375 -11.109375 Z M 11.515625 -11.109375" style="stroke:none"/></g></g><g style="fill:#ffffff;fill-opacity:1;"><g transform="translate(126.472853, 198.374987)"><path d="M 2.6875 -22.40625 L 12.921875 -22.40625 C 15.765625 -22.40625 17.941406 -21.644531 19.453125 -20.125 C 20.734375 -18.84375 21.375 -17.140625 21.375 -15.015625 L 21.375 -14.9375 C 21.375 -13.125 20.929688 -11.644531 20.046875 -10.5 C 19.160156 -9.363281 18.003906 -8.53125 16.578125 -8 L 22.046875 0 L 16.28125 0 L 11.484375 -7.171875 L 7.609375 -7.171875 L 7.609375 0 L 2.6875 0 Z M 12.609375 -11.515625 C 13.828125 -11.515625 14.757812 -11.800781 15.40625 -12.375 C 16.0625 -12.957031 16.390625 -13.726562 16.390625 -14.6875 L 16.390625 -14.75 C 16.390625 -15.820312 16.046875 -16.625 15.359375 -17.15625 C 14.679688 -17.6875 13.734375 -17.953125 12.515625 -17.953125 L 7.609375 -17.953125 L 7.609375 -11.515625 Z M 12.609375 -11.515625" style="stroke:none"/></g></g><g style="fill:#ffffff;fill-opacity:1;"><g transform="translate(152.899124, 198.374987)"><path d="M 2.90625 -22.40625 L 7.84375 -22.40625 L 7.84375 0 L 2.90625 0 Z M 2.90625 -22.40625" style="stroke:none"/></g></g><g style="fill:#ffffff;fill-opacity:1;"><g transform="translate(166.944434, 198.374987)"><path d="M 13.1875 0.390625 C 11.539062 0.390625 10.015625 0.09375 8.609375 -0.5 C 7.203125 -1.101562 5.984375 -1.921875 4.953125 -2.953125 C 3.929688 -3.992188 3.132812 -5.21875 2.5625 -6.625 C 1.988281 -8.03125 1.703125 -9.535156 1.703125 -11.140625 L 1.703125 -11.203125 C 1.703125 -12.796875 1.988281 -14.289062 2.5625 -15.6875 C 3.132812 -17.09375 3.929688 -18.320312 4.953125 -19.375 C 5.984375 -20.425781 7.210938 -21.253906 8.640625 -21.859375 C 10.066406 -22.472656 11.644531 -22.78125 13.375 -22.78125 C 14.414062 -22.78125 15.367188 -22.691406 16.234375 -22.515625 C 17.097656 -22.347656 17.878906 -22.113281 18.578125 -21.8125 C 19.285156 -21.519531 19.9375 -21.160156 20.53125 -20.734375 C 21.132812 -20.304688 21.691406 -19.835938 22.203125 -19.328125 L 19.078125 -15.71875 C 18.203125 -16.5 17.3125 -17.113281 16.40625 -17.5625 C 15.5 -18.007812 14.476562 -18.234375 13.34375 -18.234375 C 12.40625 -18.234375 11.535156 -18.050781 10.734375 -17.6875 C 9.929688 -17.332031 9.242188 -16.832031 8.671875 -16.1875 C 8.097656 -15.550781 7.648438 -14.8125 7.328125 -13.96875 C 7.003906 -13.125 6.84375 -12.222656 6.84375 -11.265625 L 6.84375 -11.203125 C 6.84375 -10.242188 7.003906 -9.335938 7.328125 -8.484375 C 7.648438 -7.628906 8.09375 -6.878906 8.65625 -6.234375 C 9.21875 -5.597656 9.898438 -5.09375 10.703125 -4.71875 C 11.503906 -4.34375 12.382812 -4.15625 13.34375 -4.15625 C 14.625 -4.15625 15.707031 -4.390625 16.59375 -4.859375 C 17.476562 -5.328125 18.359375 -5.96875 19.234375 -6.78125 L 22.375 -3.609375 C 21.789062 -2.992188 21.1875 -2.441406 20.5625 -1.953125 C 19.945312 -1.460938 19.269531 -1.039062 18.53125 -0.6875 C 17.800781 -0.332031 17 -0.0664062 16.125 0.109375 C 15.25 0.296875 14.269531 0.390625 13.1875 0.390625 Z M 13.1875 0.390625" style="stroke:none"/></g></g><g style="fill:#ffffff;fill-opacity:1;"><g transform="translate(193.850591, 198.374987)"><path d="M 2.6875 -22.40625 L 19.578125 -22.40625 L 19.578125 -18.015625 L 7.578125 -18.015625 L 7.578125 -13.46875 L 18.140625 -13.46875 L 18.140625 -9.09375 L 7.578125 -9.09375 L 7.578125 -4.390625 L 19.75 -4.390625 L 19.75 0 L 2.6875 0 Z M 2.6875 -22.40625" style="stroke:none"/></g></g><g style="fill:#ffffff;fill-opacity:1;"><g transform="translate(218.581271, 198.374987)"><path d="M 10.65625 0.3125 C 8.945312 0.3125 7.269531 0.0195312 5.625 -0.5625 C 3.988281 -1.144531 2.5 -2.046875 1.15625 -3.265625 L 4.0625 -6.75 C 5.082031 -5.914062 6.128906 -5.253906 7.203125 -4.765625 C 8.285156 -4.273438 9.46875 -4.03125 10.75 -4.03125 C 11.769531 -4.03125 12.5625 -4.21875 13.125 -4.59375 C 13.695312 -4.96875 13.984375 -5.484375 13.984375 -6.140625 L 13.984375 -6.203125 C 13.984375 -6.523438 13.921875 -6.804688 13.796875 -7.046875 C 13.679688 -7.296875 13.457031 -7.523438 13.125 -7.734375 C 12.800781 -7.953125 12.34375 -8.164062 11.75 -8.375 C 11.164062 -8.59375 10.40625 -8.820312 9.46875 -9.0625 C 8.34375 -9.332031 7.320312 -9.640625 6.40625 -9.984375 C 5.488281 -10.328125 4.707031 -10.75 4.0625 -11.25 C 3.425781 -11.75 2.929688 -12.367188 2.578125 -13.109375 C 2.222656 -13.859375 2.046875 -14.789062 2.046875 -15.90625 L 2.046875 -15.96875 C 2.046875 -16.988281 2.238281 -17.910156 2.625 -18.734375 C 3.007812 -19.554688 3.546875 -20.265625 4.234375 -20.859375 C 4.929688 -21.460938 5.757812 -21.921875 6.71875 -22.234375 C 7.675781 -22.554688 8.734375 -22.71875 9.890625 -22.71875 C 11.535156 -22.71875 13.046875 -22.472656 14.421875 -21.984375 C 15.796875 -21.492188 17.054688 -20.789062 18.203125 -19.875 L 15.640625 -16.15625 C 14.640625 -16.84375 13.660156 -17.382812 12.703125 -17.78125 C 11.742188 -18.175781 10.785156 -18.375 9.828125 -18.375 C 8.867188 -18.375 8.144531 -18.1875 7.65625 -17.8125 C 7.175781 -17.4375 6.9375 -16.972656 6.9375 -16.421875 L 6.9375 -16.359375 C 6.9375 -15.992188 7.003906 -15.675781 7.140625 -15.40625 C 7.285156 -15.144531 7.539062 -14.90625 7.90625 -14.6875 C 8.269531 -14.476562 8.765625 -14.273438 9.390625 -14.078125 C 10.023438 -13.890625 10.820312 -13.664062 11.78125 -13.40625 C 12.90625 -13.101562 13.910156 -12.765625 14.796875 -12.390625 C 15.679688 -12.023438 16.425781 -11.578125 17.03125 -11.046875 C 17.644531 -10.523438 18.101562 -9.910156 18.40625 -9.203125 C 18.71875 -8.503906 18.875 -7.664062 18.875 -6.6875 L 18.875 -6.625 C 18.875 -5.507812 18.671875 -4.519531 18.265625 -3.65625 C 17.859375 -2.800781 17.289062 -2.078125 16.5625 -1.484375 C 15.84375 -0.898438 14.984375 -0.453125 13.984375 -0.140625 C 12.984375 0.160156 11.875 0.3125 10.65625 0.3125 Z M 10.65625 0.3125" style="stroke:none"/></g></g><g style="fill:#ffffff;fill-opacity:1;"><g transform="translate(242.352194, 198.374987)"><path d="M 13.1875 0.390625 C 11.539062 0.390625 10.015625 0.09375 8.609375 -0.5 C 7.203125 -1.101562 5.984375 -1.921875 4.953125 -2.953125 C 3.929688 -3.992188 3.132812 -5.21875 2.5625 -6.625 C 1.988281 -8.03125 1.703125 -9.535156 1.703125 -11.140625 L 1.703125 -11.203125 C 1.703125 -12.796875 1.988281 -14.289062 2.5625 -15.6875 C 3.132812 -17.09375 3.929688 -18.320312 4.953125 -19.375 C 5.984375 -20.425781 7.210938 -21.253906 8.640625 -21.859375 C 10.066406 -22.472656 11.644531 -22.78125 13.375 -22.78125 C 14.414062 -22.78125 15.367188 -22.691406 16.234375 -22.515625 C 17.097656 -22.347656 17.878906 -22.113281 18.578125 -21.8125 C 19.285156 -21.519531 19.9375 -21.160156 20.53125 -20.734375 C 21.132812 -20.304688 21.691406 -19.835938 22.203125 -19.328125 L 19.078125 -15.71875 C 18.203125 -16.5 17.3125 -17.113281 16.40625 -17.5625 C 15.5 -18.007812 14.476562 -18.234375 13.34375 -18.234375 C 12.40625 -18.234375 11.535156 -18.050781 10.734375 -17.6875 C 9.929688 -17.332031 9.242188 -16.832031 8.671875 -16.1875 C 8.097656 -15.550781 7.648438 -14.8125 7.328125 -13.96875 C 7.003906 -13.125 6.84375 -12.222656 6.84375 -11.265625 L 6.84375 -11.203125 C 6.84375 -10.242188 7.003906 -9.335938 7.328125 -8.484375 C 7.648438 -7.628906 8.09375 -6.878906 8.65625 -6.234375 C 9.21875 -5.597656 9.898438 -5.09375 10.703125 -4.71875 C 11.503906 -4.34375 12.382812 -4.15625 13.34375 -4.15625 C 14.625 -4.15625 15.707031 -4.390625 16.59375 -4.859375 C 17.476562 -5.328125 18.359375 -5.96875 19.234375 -6.78125 L 22.375 -3.609375 C 21.789062 -2.992188 21.1875 -2.441406 20.5625 -1.953125 C 19.945312 -1.460938 19.269531 -1.039062 18.53125 -0.6875 C 17.800781 -0.332031 17 -0.0664062 16.125 0.109375 C 15.25 0.296875 14.269531 0.390625 13.1875 0.390625 Z M 13.1875 0.390625" style="stroke:none"/></g></g><g style="fill:#ffffff;fill-opacity:1;"><g transform="translate(269.25835, 198.374987)"><path d="M 13.5625 0.390625 C 11.832031 0.390625 10.242188 0.0859375 8.796875 -0.515625 C 7.347656 -1.128906 6.09375 -1.953125 5.03125 -2.984375 C 3.976562 -4.023438 3.160156 -5.242188 2.578125 -6.640625 C 1.992188 -8.035156 1.703125 -9.535156 1.703125 -11.140625 L 1.703125 -11.203125 C 1.703125 -12.796875 2 -14.289062 2.59375 -15.6875 C 3.1875 -17.09375 4.007812 -18.320312 5.0625 -19.375 C 6.125 -20.425781 7.382812 -21.253906 8.84375 -21.859375 C 10.3125 -22.472656 11.90625 -22.78125 13.625 -22.78125 C 15.351562 -22.78125 16.941406 -22.472656 18.390625 -21.859375 C 19.847656 -21.253906 21.101562 -20.4375 22.15625 -19.40625 C 23.21875 -18.375 24.039062 -17.15625 24.625 -15.75 C 25.207031 -14.351562 25.5 -12.859375 25.5 -11.265625 L 25.5 -11.203125 C 25.5 -9.597656 25.203125 -8.097656 24.609375 -6.703125 C 24.015625 -5.304688 23.1875 -4.078125 22.125 -3.015625 C 21.070312 -1.960938 19.8125 -1.128906 18.34375 -0.515625 C 16.882812 0.0859375 15.289062 0.390625 13.5625 0.390625 Z M 13.625 -4.15625 C 14.613281 -4.15625 15.519531 -4.335938 16.34375 -4.703125 C 17.175781 -5.066406 17.882812 -5.566406 18.46875 -6.203125 C 19.0625 -6.847656 19.523438 -7.59375 19.859375 -8.4375 C 20.191406 -9.28125 20.359375 -10.179688 20.359375 -11.140625 L 20.359375 -11.203125 C 20.359375 -12.160156 20.191406 -13.066406 19.859375 -13.921875 C 19.523438 -14.773438 19.050781 -15.519531 18.4375 -16.15625 C 17.832031 -16.800781 17.113281 -17.304688 16.28125 -17.671875 C 15.457031 -18.046875 14.550781 -18.234375 13.5625 -18.234375 C 12.5625 -18.234375 11.648438 -18.050781 10.828125 -17.6875 C 10.003906 -17.332031 9.300781 -16.832031 8.71875 -16.1875 C 8.132812 -15.550781 7.675781 -14.8125 7.34375 -13.96875 C 7.007812 -13.125 6.84375 -12.222656 6.84375 -11.265625 L 6.84375 -11.203125 C 6.84375 -10.242188 7.007812 -9.335938 7.34375 -8.484375 C 7.675781 -7.628906 8.144531 -6.878906 8.75 -6.234375 C 9.351562 -5.597656 10.066406 -5.09375 10.890625 -4.71875 C 11.710938 -4.34375 12.625 -4.15625 13.625 -4.15625 Z M 13.625 -4.15625" style="stroke:none"/></g></g><g style="fill:#ffffff;fill-opacity:1;"><g transform="translate(299.747618, 198.374987)"><path d="M 2.6875 -22.40625 L 11.84375 -22.40625 C 13.1875 -22.40625 14.382812 -22.21875 15.4375 -21.84375 C 16.5 -21.46875 17.394531 -20.9375 18.125 -20.25 C 18.863281 -19.570312 19.429688 -18.757812 19.828125 -17.8125 C 20.222656 -16.863281 20.421875 -15.8125 20.421875 -14.65625 L 20.421875 -14.59375 C 20.421875 -13.289062 20.1875 -12.148438 19.71875 -11.171875 C 19.25 -10.191406 18.601562 -9.367188 17.78125 -8.703125 C 16.957031 -8.046875 15.992188 -7.550781 14.890625 -7.21875 C 13.796875 -6.882812 12.617188 -6.71875 11.359375 -6.71875 L 7.609375 -6.71875 L 7.609375 0 L 2.6875 0 Z M 11.515625 -11.109375 C 12.753906 -11.109375 13.710938 -11.429688 14.390625 -12.078125 C 15.078125 -12.734375 15.421875 -13.539062 15.421875 -14.5 L 15.421875 -14.5625 C 15.421875 -15.664062 15.0625 -16.503906 14.34375 -17.078125 C 13.632812 -17.660156 12.660156 -17.953125 11.421875 -17.953125 L 7.609375 -17.953125 L 7.609375 -11.109375 Z M 11.515625 -11.109375" style="stroke:none"/></g></g><g style="fill:#ffffff;fill-opacity:1;"><g transform="translate(324.414326, 198.374987)"><path d="M 2.6875 -22.40625 L 19.578125 -22.40625 L 19.578125 -18.015625 L 7.578125 -18.015625 L 7.578125 -13.46875 L 18.140625 -13.46875 L 18.140625 -9.09375 L 7.578125 -9.09375 L 7.578125 -4.390625 L 19.75 -4.390625 L 19.75 0 L 2.6875 0 Z M 2.6875 -22.40625" style="stroke:none"/></g></g><g style="fill:#5ce1e6;fill-opacity:1;"><g transform="translate(103.151928, 217.875029)"><path d="M 4.40625 0.125 C 3.675781 0.125 3.007812 0.0078125 2.40625 -0.21875 C 1.8125 -0.457031 1.238281 -0.828125 0.6875 -1.328125 L 1.328125 -2.078125 C 1.804688 -1.648438 2.285156 -1.328125 2.765625 -1.109375 C 3.253906 -0.898438 3.816406 -0.796875 4.453125 -0.796875 C 5.066406 -0.796875 5.554688 -0.9375 5.921875 -1.21875 C 6.285156 -1.507812 6.46875 -1.882812 6.46875 -2.34375 L 6.46875 -2.359375 C 6.46875 -2.566406 6.429688 -2.753906 6.359375 -2.921875 C 6.296875 -3.097656 6.175781 -3.253906 6 -3.390625 C 5.832031 -3.523438 5.59375 -3.648438 5.28125 -3.765625 C 4.976562 -3.878906 4.585938 -3.988281 4.109375 -4.09375 C 3.585938 -4.207031 3.132812 -4.335938 2.75 -4.484375 C 2.363281 -4.628906 2.046875 -4.804688 1.796875 -5.015625 C 1.546875 -5.222656 1.359375 -5.460938 1.234375 -5.734375 C 1.109375 -6.015625 1.046875 -6.34375 1.046875 -6.71875 L 1.046875 -6.75 C 1.046875 -7.101562 1.117188 -7.429688 1.265625 -7.734375 C 1.421875 -8.035156 1.628906 -8.296875 1.890625 -8.515625 C 2.160156 -8.742188 2.476562 -8.921875 2.84375 -9.046875 C 3.207031 -9.171875 3.609375 -9.234375 4.046875 -9.234375 C 4.710938 -9.234375 5.289062 -9.140625 5.78125 -8.953125 C 6.28125 -8.765625 6.765625 -8.484375 7.234375 -8.109375 L 6.640625 -7.3125 C 6.210938 -7.664062 5.785156 -7.921875 5.359375 -8.078125 C 4.929688 -8.234375 4.484375 -8.3125 4.015625 -8.3125 C 3.421875 -8.3125 2.945312 -8.171875 2.59375 -7.890625 C 2.25 -7.609375 2.078125 -7.257812 2.078125 -6.84375 L 2.078125 -6.8125 C 2.078125 -6.59375 2.109375 -6.398438 2.171875 -6.234375 C 2.242188 -6.066406 2.367188 -5.910156 2.546875 -5.765625 C 2.734375 -5.617188 2.988281 -5.488281 3.3125 -5.375 C 3.632812 -5.257812 4.046875 -5.148438 4.546875 -5.046875 C 5.566406 -4.816406 6.316406 -4.503906 6.796875 -4.109375 C 7.273438 -3.710938 7.515625 -3.164062 7.515625 -2.46875 L 7.515625 -2.4375 C 7.515625 -2.050781 7.4375 -1.695312 7.28125 -1.375 C 7.125 -1.0625 6.910156 -0.789062 6.640625 -0.5625 C 6.367188 -0.34375 6.039062 -0.171875 5.65625 -0.046875 C 5.269531 0.0664062 4.851562 0.125 4.40625 0.125 Z M 4.40625 0.125" style="stroke:none"/></g></g><g style="fill:#5ce1e6;fill-opacity:1;"><g transform="translate(112.769382, 217.875029)"><path d="M 1.28125 -9.09375 L 7.859375 -9.09375 L 7.859375 -8.15625 L 2.3125 -8.15625 L 2.3125 -5.0625 L 7.28125 -5.0625 L 7.28125 -4.125 L 2.3125 -4.125 L 2.3125 -0.9375 L 7.9375 -0.9375 L 7.9375 0 L 1.28125 0 Z M 1.28125 -9.09375" style="stroke:none"/></g></g><g style="fill:#5ce1e6;fill-opacity:1;"><g transform="translate(122.776713, 217.875029)"><path d="M 1.28125 -9.09375 L 7.859375 -9.09375 L 7.859375 -8.15625 L 2.3125 -8.15625 L 2.3125 -5.0625 L 7.28125 -5.0625 L 7.28125 -4.125 L 2.3125 -4.125 L 2.3125 -0.9375 L 7.9375 -0.9375 L 7.9375 0 L 1.28125 0 Z M 1.28125 -9.09375" style="stroke:none"/></g></g><g style="fill:#5ce1e6;fill-opacity:1;"><g transform="translate(132.784045, 217.875029)"><path d="" style="stroke:none"/></g></g><g style="fill:#5ce1e6;fill-opacity:1;"><g transform="translate(137.982855, 217.875029)"><path d="M 3.65625 -8.15625 L 0.578125 -8.15625 L 0.578125 -9.09375 L 7.75 -9.09375 L 7.75 -8.15625 L 4.6875 -8.15625 L 4.6875 0 L 3.65625 0 Z M 3.65625 -8.15625" style="stroke:none"/></g></g><g style="fill:#5ce1e6;fill-opacity:1;"><g transform="translate(147.613309, 217.875029)"><path d="M 1.28125 -9.09375 L 2.3125 -9.09375 L 2.3125 -5.0625 L 7.5625 -5.0625 L 7.5625 -9.09375 L 8.59375 -9.09375 L 8.59375 0 L 7.5625 0 L 7.5625 -4.09375 L 2.3125 -4.09375 L 2.3125 0 L 1.28125 0 Z M 1.28125 -9.09375" style="stroke:none"/></g></g><g style="fill:#5ce1e6;fill-opacity:1;"><g transform="translate(158.790284, 217.875029)"><path d="M 1.28125 -9.09375 L 7.859375 -9.09375 L 7.859375 -8.15625 L 2.3125 -8.15625 L 2.3125 -5.0625 L 7.28125 -5.0625 L 7.28125 -4.125 L 2.3125 -4.125 L 2.3125 -0.9375 L 7.9375 -0.9375 L 7.9375 0 L 1.28125 0 Z M 1.28125 -9.09375" style="stroke:none"/></g></g><g style="fill:#5ce1e6;fill-opacity:1;"><g transform="translate(168.797615, 217.875029)"><path d="" style="stroke:none"/></g></g><g style="fill:#5ce1e6;fill-opacity:1;"><g transform="translate(173.996425, 217.875029)"><path d="M 1.28125 -9.09375 L 5.15625 -9.09375 C 5.675781 -9.09375 6.140625 -9.019531 6.546875 -8.875 C 6.953125 -8.738281 7.285156 -8.546875 7.546875 -8.296875 C 7.929688 -7.890625 8.125 -7.40625 8.125 -6.84375 L 8.125 -6.8125 C 8.125 -6.519531 8.082031 -6.257812 8 -6.03125 C 7.914062 -5.800781 7.804688 -5.597656 7.671875 -5.421875 C 7.535156 -5.253906 7.378906 -5.113281 7.203125 -5 C 7.035156 -4.882812 6.863281 -4.785156 6.6875 -4.703125 C 6.945312 -4.628906 7.195312 -4.53125 7.4375 -4.40625 C 7.675781 -4.28125 7.878906 -4.128906 8.046875 -3.953125 C 8.222656 -3.773438 8.363281 -3.566406 8.46875 -3.328125 C 8.570312 -3.097656 8.625 -2.828125 8.625 -2.515625 L 8.625 -2.484375 C 8.625 -2.085938 8.546875 -1.734375 8.390625 -1.421875 C 8.234375 -1.117188 8.007812 -0.863281 7.71875 -0.65625 C 7.4375 -0.445312 7.09375 -0.285156 6.6875 -0.171875 C 6.28125 -0.0546875 5.828125 0 5.328125 0 L 1.28125 0 Z M 7.078125 -6.6875 C 7.078125 -7.144531 6.90625 -7.503906 6.5625 -7.765625 C 6.21875 -8.035156 5.71875 -8.171875 5.0625 -8.171875 L 2.296875 -8.171875 L 2.296875 -5.046875 L 4.984375 -5.046875 C 5.609375 -5.046875 6.113281 -5.179688 6.5 -5.453125 C 6.882812 -5.722656 7.078125 -6.128906 7.078125 -6.671875 Z M 7.59375 -2.578125 C 7.59375 -3.066406 7.390625 -3.445312 6.984375 -3.71875 C 6.578125 -4 5.972656 -4.140625 5.171875 -4.140625 L 2.296875 -4.140625 L 2.296875 -0.921875 L 5.359375 -0.921875 C 6.046875 -0.921875 6.585938 -1.0625 6.984375 -1.34375 C 7.390625 -1.632812 7.59375 -2.035156 7.59375 -2.546875 Z M 7.59375 -2.578125" style="stroke:none"/></g></g><g style="fill:#5ce1e6;fill-opacity:1;"><g transform="translate(184.679553, 217.875029)"><path d="M 1.28125 -9.09375 L 7.859375 -9.09375 L 7.859375 -8.15625 L 2.3125 -8.15625 L 2.3125 -5.0625 L 7.28125 -5.0625 L 7.28125 -4.125 L 2.3125 -4.125 L 2.3125 -0.9375 L 7.9375 -0.9375 L 7.9375 0 L 1.28125 0 Z M 1.28125 -9.09375" style="stroke:none"/></g></g><g style="fill:#5ce1e6;fill-opacity:1;"><g transform="translate(194.686884, 217.875029)"><path d="M 4.40625 0.125 C 3.675781 0.125 3.007812 0.0078125 2.40625 -0.21875 C 1.8125 -0.457031 1.238281 -0.828125 0.6875 -1.328125 L 1.328125 -2.078125 C 1.804688 -1.648438 2.285156 -1.328125 2.765625 -1.109375 C 3.253906 -0.898438 3.816406 -0.796875 4.453125 -0.796875 C 5.066406 -0.796875 5.554688 -0.9375 5.921875 -1.21875 C 6.285156 -1.507812 6.46875 -1.882812 6.46875 -2.34375 L 6.46875 -2.359375 C 6.46875 -2.566406 6.429688 -2.753906 6.359375 -2.921875 C 6.296875 -3.097656 6.175781 -3.253906 6 -3.390625 C 5.832031 -3.523438 5.59375 -3.648438 5.28125 -3.765625 C 4.976562 -3.878906 4.585938 -3.988281 4.109375 -4.09375 C 3.585938 -4.207031 3.132812 -4.335938 2.75 -4.484375 C 2.363281 -4.628906 2.046875 -4.804688 1.796875 -5.015625 C 1.546875 -5.222656 1.359375 -5.460938 1.234375 -5.734375 C 1.109375 -6.015625 1.046875 -6.34375 1.046875 -6.71875 L 1.046875 -6.75 C 1.046875 -7.101562 1.117188 -7.429688 1.265625 -7.734375 C 1.421875 -8.035156 1.628906 -8.296875 1.890625 -8.515625 C 2.160156 -8.742188 2.476562 -8.921875 2.84375 -9.046875 C 3.207031 -9.171875 3.609375 -9.234375 4.046875 -9.234375 C 4.710938 -9.234375 5.289062 -9.140625 5.78125 -8.953125 C 6.28125 -8.765625 6.765625 -8.484375 7.234375 -8.109375 L 6.640625 -7.3125 C 6.210938 -7.664062 5.785156 -7.921875 5.359375 -8.078125 C 4.929688 -8.234375 4.484375 -8.3125 4.015625 -8.3125 C 3.421875 -8.3125 2.945312 -8.171875 2.59375 -7.890625 C 2.25 -7.609375 2.078125 -7.257812 2.078125 -6.84375 L 2.078125 -6.8125 C 2.078125 -6.59375 2.109375 -6.398438 2.171875 -6.234375 C 2.242188 -6.066406 2.367188 -5.910156 2.546875 -5.765625 C 2.734375 -5.617188 2.988281 -5.488281 3.3125 -5.375 C 3.632812 -5.257812 4.046875 -5.148438 4.546875 -5.046875 C 5.566406 -4.816406 6.316406 -4.503906 6.796875 -4.109375 C 7.273438 -3.710938 7.515625 -3.164062 7.515625 -2.46875 L 7.515625 -2.4375 C 7.515625 -2.050781 7.4375 -1.695312 7.28125 -1.375 C 7.125 -1.0625 6.910156 -0.789062 6.640625 -0.5625 C 6.367188 -0.34375 6.039062 -0.171875 5.65625 -0.046875 C 5.269531 0.0664062 4.851562 0.125 4.40625 0.125 Z M 4.40625 0.125" style="stroke:none"/></g></g><g style="fill:#5ce1e6;fill-opacity:1;"><g transform="translate(204.304338, 217.875029)"><path d="M 3.65625 -8.15625 L 0.578125 -8.15625 L 0.578125 -9.09375 L 7.75 -9.09375 L 7.75 -8.15625 L 4.6875 -8.15625 L 4.6875 0 L 3.65625 0 Z M 3.65625 -8.15625" style="stroke:none"/></g></g><g style="fill:#5ce1e6;fill-opacity:1;"><g transform="translate(213.934792, 217.875029)"><path d="M 0.984375 -1.359375 L 2.1875 -1.359375 L 2.1875 0 L 0.984375 0 Z M 0.984375 -1.359375" style="stroke:none"/></g></g><g style="fill:#5ce1e6;fill-opacity:1;"><g transform="translate(218.405827, 217.875029)"><path d="" style="stroke:none"/></g></g><g style="fill:#5ce1e6;fill-opacity:1;"><g transform="translate(223.604637, 217.875029)"><path d="M 1.28125 -9.09375 L 4.6875 -9.09375 C 5.195312 -9.09375 5.660156 -9.023438 6.078125 -8.890625 C 6.503906 -8.765625 6.867188 -8.578125 7.171875 -8.328125 C 7.472656 -8.078125 7.703125 -7.773438 7.859375 -7.421875 C 8.015625 -7.066406 8.09375 -6.664062 8.09375 -6.21875 L 8.09375 -6.1875 C 8.09375 -5.695312 8 -5.265625 7.8125 -4.890625 C 7.625 -4.523438 7.363281 -4.21875 7.03125 -3.96875 C 6.707031 -3.71875 6.328125 -3.53125 5.890625 -3.40625 C 5.460938 -3.28125 5.007812 -3.21875 4.53125 -3.21875 L 2.3125 -3.21875 L 2.3125 0 L 1.28125 0 Z M 4.5625 -4.140625 C 4.9375 -4.140625 5.273438 -4.1875 5.578125 -4.28125 C 5.890625 -4.382812 6.15625 -4.523438 6.375 -4.703125 C 6.59375 -4.878906 6.757812 -5.085938 6.875 -5.328125 C 7 -5.566406 7.0625 -5.84375 7.0625 -6.15625 L 7.0625 -6.171875 C 7.0625 -6.828125 6.835938 -7.320312 6.390625 -7.65625 C 5.941406 -7.988281 5.347656 -8.15625 4.609375 -8.15625 L 2.3125 -8.15625 L 2.3125 -4.140625 Z M 4.5625 -4.140625" style="stroke:none"/></g></g><g style="fill:#5ce1e6;fill-opacity:1;"><g transform="translate(233.585979, 217.875029)"><path d="M 4.65625 -9.171875 L 5.609375 -9.171875 L 9.765625 0 L 8.65625 0 L 7.59375 -2.40625 L 2.640625 -2.40625 L 1.5625 0 L 0.5 0 Z M 7.1875 -3.328125 L 5.125 -7.96875 L 3.046875 -3.328125 Z M 7.1875 -3.328125" style="stroke:none"/></g></g><g style="fill:#5ce1e6;fill-opacity:1;"><g transform="translate(245.152831, 217.875029)"><path d="M 4.140625 -3.59375 L 0.34375 -9.09375 L 1.59375 -9.09375 L 4.671875 -4.546875 L 7.765625 -9.09375 L 8.953125 -9.09375 L 5.171875 -3.609375 L 5.171875 0 L 4.140625 0 Z M 4.140625 -3.59375" style="stroke:none"/></g></g><g style="fill:#5ce1e6;fill-opacity:1;"><g transform="translate(255.757978, 217.875029)"><path d="" style="stroke:none"/></g></g><g style="fill:#5ce1e6;fill-opacity:1;"><g transform="translate(260.956788, 217.875029)"><path d="M 3.65625 -8.15625 L 0.578125 -8.15625 L 0.578125 -9.09375 L 7.75 -9.09375 L 7.75 -8.15625 L 4.6875 -8.15625 L 4.6875 0 L 3.65625 0 Z M 3.65625 -8.15625" style="stroke:none"/></g></g><g style="fill:#5ce1e6;fill-opacity:1;"><g transform="translate(270.587243, 217.875029)"><path d="M 1.28125 -9.09375 L 2.3125 -9.09375 L 2.3125 -5.0625 L 7.5625 -5.0625 L 7.5625 -9.09375 L 8.59375 -9.09375 L 8.59375 0 L 7.5625 0 L 7.5625 -4.09375 L 2.3125 -4.09375 L 2.3125 0 L 1.28125 0 Z M 1.28125 -9.09375" style="stroke:none"/></g></g><g style="fill:#5ce1e6;fill-opacity:1;"><g transform="translate(281.764217, 217.875029)"><path d="M 1.28125 -9.09375 L 7.859375 -9.09375 L 7.859375 -8.15625 L 2.3125 -8.15625 L 2.3125 -5.0625 L 7.28125 -5.0625 L 7.28125 -4.125 L 2.3125 -4.125 L 2.3125 -0.9375 L 7.9375 -0.9375 L 7.9375 0 L 1.28125 0 Z M 1.28125 -9.09375" style="stroke:none"/></g></g><g style="fill:#5ce1e6;fill-opacity:1;"><g transform="translate(291.771549, 217.875029)"><path d="" style="stroke:none"/></g></g><g style="fill:#5ce1e6;fill-opacity:1;"><g transform="translate(296.970359, 217.875029)"><path d="M 1.28125 -9.09375 L 2.3125 -9.09375 L 2.3125 -0.953125 L 7.4375 -0.953125 L 7.4375 0 L 1.28125 0 Z M 1.28125 -9.09375" style="stroke:none"/></g></g><g style="fill:#5ce1e6;fill-opacity:1;"><g transform="translate(306.262915, 217.875029)"><path d="M 1.28125 -9.09375 L 7.859375 -9.09375 L 7.859375 -8.15625 L 2.3125 -8.15625 L 2.3125 -5.0625 L 7.28125 -5.0625 L 7.28125 -4.125 L 2.3125 -4.125 L 2.3125 -0.9375 L 7.9375 -0.9375 L 7.9375 0 L 1.28125 0 Z M 1.28125 -9.09375" style="stroke:none"/></g></g><g style="fill:#5ce1e6;fill-opacity:1;"><g transform="translate(316.270246, 217.875029)"><path d="M 4.65625 -9.171875 L 5.609375 -9.171875 L 9.765625 0 L 8.65625 0 L 7.59375 -2.40625 L 2.640625 -2.40625 L 1.5625 0 L 0.5 0 Z M 7.1875 -3.328125 L 5.125 -7.96875 L 3.046875 -3.328125 Z M 7.1875 -3.328125" style="stroke:none"/></g></g><g style="fill:#5ce1e6;fill-opacity:1;"><g transform="translate(327.837109, 217.875029)"><path d="M 4.40625 0.125 C 3.675781 0.125 3.007812 0.0078125 2.40625 -0.21875 C 1.8125 -0.457031 1.238281 -0.828125 0.6875 -1.328125 L 1.328125 -2.078125 C 1.804688 -1.648438 2.285156 -1.328125 2.765625 -1.109375 C 3.253906 -0.898438 3.816406 -0.796875 4.453125 -0.796875 C 5.066406 -0.796875 5.554688 -0.9375 5.921875 -1.21875 C 6.285156 -1.507812 6.46875 -1.882812 6.46875 -2.34375 L 6.46875 -2.359375 C 6.46875 -2.566406 6.429688 -2.753906 6.359375 -2.921875 C 6.296875 -3.097656 6.175781 -3.253906 6 -3.390625 C 5.832031 -3.523438 5.59375 -3.648438 5.28125 -3.765625 C 4.976562 -3.878906 4.585938 -3.988281 4.109375 -4.09375 C 3.585938 -4.207031 3.132812 -4.335938 2.75 -4.484375 C 2.363281 -4.628906 2.046875 -4.804688 1.796875 -5.015625 C 1.546875 -5.222656 1.359375 -5.460938 1.234375 -5.734375 C 1.109375 -6.015625 1.046875 -6.34375 1.046875 -6.71875 L 1.046875 -6.75 C 1.046875 -7.101562 1.117188 -7.429688 1.265625 -7.734375 C 1.421875 -8.035156 1.628906 -8.296875 1.890625 -8.515625 C 2.160156 -8.742188 2.476562 -8.921875 2.84375 -9.046875 C 3.207031 -9.171875 3.609375 -9.234375 4.046875 -9.234375 C 4.710938 -9.234375 5.289062 -9.140625 5.78125 -8.953125 C 6.28125 -8.765625 6.765625 -8.484375 7.234375 -8.109375 L 6.640625 -7.3125 C 6.210938 -7.664062 5.785156 -7.921875 5.359375 -8.078125 C 4.929688 -8.234375 4.484375 -8.3125 4.015625 -8.3125 C 3.421875 -8.3125 2.945312 -8.171875 2.59375 -7.890625 C 2.25 -7.609375 2.078125 -7.257812 2.078125 -6.84375 L 2.078125 -6.8125 C 2.078125 -6.59375 2.109375 -6.398438 2.171875 -6.234375 C 2.242188 -6.066406 2.367188 -5.910156 2.546875 -5.765625 C 2.734375 -5.617188 2.988281 -5.488281 3.3125 -5.375 C 3.632812 -5.257812 4.046875 -5.148438 4.546875 -5.046875 C 5.566406 -4.816406 6.316406 -4.503906 6.796875 -4.109375 C 7.273438 -3.710938 7.515625 -3.164062 7.515625 -2.46875 L 7.515625 -2.4375 C 7.515625 -2.050781 7.4375 -1.695312 7.28125 -1.375 C 7.125 -1.0625 6.910156 -0.789062 6.640625 -0.5625 C 6.367188 -0.34375 6.039062 -0.171875 5.65625 -0.046875 C 5.269531 0.0664062 4.851562 0.125 4.40625 0.125 Z M 4.40625 0.125" style="stroke:none"/></g></g><g style="fill:#5ce1e6;fill-opacity:1;"><g transform="translate(337.45454, 217.875029)"><path d="M 3.65625 -8.15625 L 0.578125 -8.15625 L 0.578125 -9.09375 L 7.75 -9.09375 L 7.75 -8.15625 L 4.6875 -8.15625 L 4.6875 0 L 3.65625 0 Z M 3.65625 -8.15625" style="stroke:none"/></g></g><g style="fill:#5ce1e6;fill-opacity:1;"><g transform="translate(347.085018, 217.875029)"><path d="M 0.984375 -1.359375 L 2.1875 -1.359375 L 2.1875 0 L 0.984375 0 Z M 0.984375 -1.359375" style="stroke:none"/></g></g></g></svg>